<svg width="25" height="34" viewBox="0 0 25 34" fill="none" xmlns="http://www.w3.org/2000/svg">
<g id="cadeadoIcon">
<mask id="mask0_128_3355" style="mask-type:luminance" maskUnits="userSpaceOnUse" x="0" y="0" width="25" height="34">
<g id="d24a715082">
<path id="Vector" d="M0 7C0 3.134 3.13401 0 7 0H18C21.866 0 25 3.13401 25 7V26.8983C25 30.7643 21.866 33.8983 18 33.8983H7C3.13401 33.8983 0 30.7643 0 26.8983V7Z" fill="white"/>
</g>
</mask>
<g mask="url(#mask0_128_3355)">
<g id="Group">
<path id="Vector_2" d="M23.7663 13.7425C22.812 13.7425 22.0383 12.9688 22.0383 12.0145V9.53831C22.0449 4.27701 17.7679 0 12.5066 0C7.2453 0 2.96608 4.27701 2.96608 9.53831V12.0211C2.96608 12.9718 2.19539 13.7425 1.24468 13.7425C0.560539 13.7425 0.00439453 14.2986 0.00439453 14.9828V32.6646C0.00439453 33.3422 0.560539 33.8983 1.24468 33.8983H23.7729C24.4593 33.8983 25.0154 33.3422 25.0154 32.658V14.9828C25.0066 14.2986 24.4527 13.7425 23.7663 13.7425ZM5.44887 9.53831C5.44887 5.64751 8.61359 2.48058 12.5066 2.48058C16.3974 2.48058 19.5643 5.64751 19.5643 9.53831C19.5643 11.8602 17.6821 13.7425 15.3602 13.7425H9.65305C7.33114 13.7425 5.44887 11.8602 5.44887 9.53831ZM15.1704 22.3451C15.1935 24.131 13.7469 25.8308 13.7469 27.6169V27.9727C13.7469 28.6569 13.1907 29.213 12.5066 29.213C11.8202 29.213 11.2663 28.6569 11.2663 27.9727V27.622C11.2663 25.833 9.8274 24.134 9.8274 22.3451C9.8274 20.8686 11.028 19.6747 12.5 19.6747C13.9764 19.6747 15.1704 20.8753 15.1704 22.3451Z" fill="white"/>
</g>
</g>
</g>
</svg>
