<svg xmlns="http://www.w3.org/2000/svg" width="957" height="680" viewBox="0 0 957 680" version="1.1"><path d="M 131 1.012 C 121.925 1.333, 135.042 1.391, 160.150 1.139 C 205.800 0.681, 205.800 0.681, 208.353 5.591 C 211.441 11.527, 211.771 10.997, 208.953 4.627 C 206.906 0, 206.906 0, 177.203 0.213 C 160.866 0.331, 140.075 0.690, 131 1.012 M 338.200 1.200 C 337.540 1.860, 337.029 3.097, 337.063 3.950 C 337.099 4.832, 337.542 4.461, 338.091 3.089 C 339.054 0.679, 339.054 0.679, 429.277 1.169 C 478.900 1.439, 502.175 1.350, 481 0.972 C 412.017 -0.260, 339.544 -0.144, 338.200 1.200 M 4.667 2.667 C 3.582 3.752, 3.897 5.490, 5.555 7.559 C 7.057 9.434, 7.074 9.426, 6.055 7.316 C 5.475 6.114, 5 4.660, 5 4.083 C 5 3.388, 13.339 2.939, 29.750 2.749 C 54.500 2.463, 54.500 2.463, 29.917 2.232 C 16.396 2.104, 5.033 2.300, 4.667 2.667 M 530.714 13.542 C 527.577 19.844, 525.230 25, 525.497 25 C 526.160 25, 537.212 2.879, 536.770 2.437 C 536.576 2.243, 533.851 7.240, 530.714 13.542 M 555.214 4.849 C 554.235 6.307, 552.244 10.200, 550.792 13.500 C 549.339 16.800, 546.469 23.215, 544.415 27.756 C 542.360 32.297, 540.909 36.242, 541.190 36.523 C 541.470 36.804, 543.854 31.964, 546.486 25.767 C 552.411 11.818, 555.923 4.724, 557.381 3.760 C 557.997 3.353, 571.775 3.144, 588 3.296 C 605.995 3.463, 613.795 3.287, 608 2.843 C 602.775 2.443, 589.161 2.134, 577.748 2.156 C 556.996 2.198, 556.996 2.198, 555.214 4.849 M 624.083 4.367 C 624.313 4.569, 628.550 4.979, 633.500 5.278 C 639.843 5.661, 641.172 5.575, 638 4.985 C 633.452 4.139, 623.314 3.689, 624.083 4.367 M 645.083 6.360 C 645.313 6.559, 648.650 6.973, 652.500 7.282 C 656.731 7.622, 658.709 7.507, 657.500 6.992 C 655.599 6.183, 644.208 5.603, 645.083 6.360 M 7 10.343 C 7 11.509, 18.217 33.117, 18.615 32.718 C 18.937 32.396, 8.453 11.286, 7.374 10.083 C 7.168 9.854, 7 9.971, 7 10.343 M 675.083 10.372 C 675.313 10.576, 677.750 11.018, 680.500 11.352 C 683.866 11.762, 684.846 11.664, 683.500 11.051 C 681.599 10.185, 674.206 9.589, 675.083 10.372 M 215.349 19.750 C 217.752 24.563, 220.516 30.204, 221.490 32.286 C 222.465 34.368, 223.455 35.878, 223.692 35.642 C 224.192 35.141, 212.231 11, 211.482 11 C 211.206 11, 212.946 14.938, 215.349 19.750 M 753 30.406 C 753 30.629, 755.025 31.502, 757.500 32.345 C 762.893 34.183, 763.466 33.640, 758.378 31.513 C 754.761 30.002, 753 29.640, 753 30.406 M 324.231 35.252 C 323.623 36.488, 322.872 38.625, 322.561 40 C 322.251 41.375, 322.907 40.522, 324.019 38.104 C 326.072 33.642, 326.259 31.126, 324.231 35.252 M 20.049 35.227 C 20.022 35.627, 21.570 39.227, 23.488 43.227 C 25.407 47.227, 26.960 49.825, 26.940 49 C 26.902 47.453, 20.135 33.929, 20.049 35.227 M 517.695 38.513 C 516.781 40.431, 516.420 42, 516.895 42 C 517.887 42, 520.499 36.166, 519.814 35.480 C 519.563 35.230, 518.610 36.594, 517.695 38.513 M 537.174 44.779 C 535.428 48.499, 534.029 51.983, 534.065 52.522 C 534.101 53.060, 535.681 50.168, 537.577 46.095 C 539.472 42.022, 540.871 38.538, 540.685 38.352 C 540.500 38.166, 538.919 41.058, 537.174 44.779 M 227.015 43.174 C 227.007 43.545, 229.495 48.720, 232.544 54.674 C 235.594 60.628, 237.787 64.405, 237.419 63.066 C 236.285 58.950, 227.058 41.307, 227.015 43.174 M 801 51.318 C 802.375 52.036, 804.850 53.466, 806.500 54.495 C 809.469 56.346, 809.479 56.346, 807.449 54.433 C 804.855 51.988, 801.400 49.998, 799.764 50.006 C 799.069 50.010, 799.625 50.600, 801 51.318 M 28.061 52 C 28.041 52.825, 29.581 56.200, 31.482 59.500 C 33.384 62.800, 34.931 65.050, 34.921 64.500 C 34.890 62.787, 28.099 50.414, 28.061 52 M 820.083 62.379 C 822.146 64.253, 840.152 76.055, 839.610 75.178 C 839.218 74.544, 836.783 72.587, 834.199 70.829 C 831.615 69.071, 829.275 67.377, 829 67.064 C 828.725 66.752, 827.263 65.859, 825.750 65.079 C 824.237 64.300, 823 63.288, 823 62.831 C 823 62.374, 822.250 62, 821.333 62 C 820.417 62, 819.854 62.170, 820.083 62.379 M 240.202 70.478 C 241.398 72.941, 242.567 74.767, 242.798 74.535 C 243.394 73.940, 239.656 66.057, 238.763 66.026 C 238.358 66.012, 239.005 68.015, 240.202 70.478 M 492.976 87.250 C 487.900 97.287, 484.208 105.050, 484.769 104.500 C 485.330 103.950, 489.220 96.750, 493.412 88.500 C 497.604 80.250, 501.756 72.487, 502.639 71.250 C 503.522 70.013, 503.785 69, 503.223 69 C 502.662 69, 498.051 77.213, 492.976 87.250 M 523.695 75.550 C 522.213 78.572, 521.021 81.597, 521.046 82.272 C 521.071 82.947, 522.425 80.617, 524.056 77.093 C 527.700 69.214, 527.410 67.974, 523.695 75.550 M 245.669 81.397 C 247.165 84.448, 248.564 86.769, 248.778 86.555 C 249.391 85.943, 245.355 77.337, 244.087 76.554 C 243.461 76.167, 244.172 78.346, 245.669 81.397 M 841 76.311 C 841 76.557, 844.938 79.903, 849.750 83.747 C 854.563 87.591, 863.795 95.857, 870.266 102.118 C 876.738 108.378, 882.025 113.237, 882.016 112.914 C 881.983 111.734, 852.569 83.946, 848.762 81.500 C 847.906 80.950, 845.810 79.457, 844.103 78.182 C 842.396 76.907, 841 76.065, 841 76.311 M 47.705 90.472 C 49.182 93.482, 50.557 95.776, 50.762 95.571 C 51.211 95.122, 46.167 85, 45.494 85 C 45.234 85, 46.229 87.462, 47.705 90.472 M 517.189 90.549 C 515.985 93.026, 515.004 95.604, 515.010 96.277 C 515.015 96.950, 516.150 95.072, 517.531 92.105 C 518.912 89.137, 519.893 86.560, 519.710 86.377 C 519.527 86.194, 518.392 88.071, 517.189 90.549 M 59.500 114 C 64.181 123.350, 68.236 131, 68.511 131 C 68.786 131, 65.181 123.350, 60.500 114 C 55.819 104.650, 51.764 97, 51.489 97 C 51.214 97, 54.819 104.650, 59.500 114 M 509.646 107.854 C 508.191 111.097, 507.021 114.144, 507.046 114.625 C 507.071 115.106, 508.425 112.617, 510.056 109.093 C 511.686 105.569, 512.856 102.522, 512.656 102.322 C 512.455 102.122, 511.101 104.612, 509.646 107.854 M 480.984 110.772 C 477.574 117.510, 476.037 121, 476.480 121 C 477.091 121, 484.152 106.819, 483.744 106.411 C 483.542 106.209, 482.300 108.172, 480.984 110.772 M 259 108.419 C 259 108.649, 263.268 117.424, 268.485 127.919 C 275.637 142.306, 278.405 146.971, 279.735 146.884 C 281.177 146.789, 281.211 146.690, 279.917 146.343 C 279.033 146.105, 274.230 137.553, 269.032 126.959 C 260.782 110.144, 259 106.851, 259 108.419 M 503.695 121.550 C 500.023 129.036, 500.362 129.923, 504.115 122.650 C 505.775 119.432, 506.966 116.633, 506.761 116.428 C 506.557 116.223, 505.177 118.528, 503.695 121.550 M 890 122.405 C 890 122.775, 893.279 127.449, 897.287 132.789 C 901.294 138.130, 905.855 144.412, 907.423 146.750 C 908.990 149.088, 910.458 151, 910.686 151 C 911.218 151, 910.650 150.085, 903.817 139.939 C 900.691 135.297, 897.309 130.600, 896.301 129.500 C 895.293 128.400, 893.463 126.202, 892.234 124.615 C 891.005 123.028, 890 122.034, 890 122.405 M 469.783 133.001 C 468.371 135.742, 467.624 137.733, 468.122 137.425 C 469.281 136.708, 473.269 128.935, 472.745 128.412 C 472.529 128.195, 471.196 130.260, 469.783 133.001 M 69 132.352 C 69 133.440, 78.964 153, 79.518 153 C 79.966 153, 70.325 133.101, 69.385 132.083 C 69.173 131.854, 69 131.975, 69 132.352 M 495.646 139.854 C 494.191 143.097, 493.021 146.144, 493.046 146.625 C 493.071 147.106, 494.425 144.617, 496.056 141.093 C 497.686 137.569, 498.856 134.522, 498.656 134.322 C 498.455 134.122, 497.101 136.612, 495.646 139.854 M 488.648 155.942 C 486.642 160.331, 485.025 164.277, 485.057 164.711 C 485.088 165.145, 486.891 161.716, 489.065 157.091 C 491.238 152.467, 492.854 148.521, 492.656 148.322 C 492.458 148.124, 490.654 151.553, 488.648 155.942 M 915 159.465 C 915 159.721, 916.350 162.059, 918 164.661 C 921.678 170.461, 921.983 169.533, 918.405 163.428 C 916.051 159.410, 915 158.188, 915 159.465 M 85.049 163.546 C 85.022 164.122, 86.565 167.497, 88.477 171.046 C 90.390 174.596, 91.943 177.050, 91.929 176.500 C 91.892 175.065, 85.107 162.291, 85.049 163.546 M 480.679 173.546 C 479.756 175.483, 479.032 177.615, 479.071 178.284 C 479.109 178.953, 480.019 177.522, 481.092 175.104 C 483.426 169.842, 483.076 168.519, 480.679 173.546 M 93 179.776 C 93 180.989, 96.938 188, 97.619 188 C 98.012 188, 94.206 180, 93.377 179.083 C 93.170 178.854, 93 179.166, 93 179.776 M 475.199 186.551 C 473.439 190.119, 472 193.704, 472 194.519 C 472 195.810, 478.311 195.969, 521.250 195.760 C 570.500 195.519, 570.500 195.519, 521.686 195.250 C 472.871 194.981, 472.871 194.981, 473.565 192.740 C 473.947 191.508, 475.356 188.318, 476.697 185.651 C 478.037 182.983, 478.969 180.635, 478.766 180.433 C 478.563 180.230, 476.958 182.983, 475.199 186.551 M 440.949 189.101 C 439.255 192.457, 438.034 195.367, 438.236 195.569 C 438.437 195.771, 440.038 193.025, 441.792 189.468 C 443.546 185.911, 444.767 183, 444.505 183 C 444.243 183, 442.643 185.746, 440.949 189.101 M 590 196.984 C 596.874 197.811, 611.622 198.262, 610.917 197.623 C 610.688 197.415, 604.425 197.010, 597 196.723 C 588.110 196.379, 585.720 196.468, 590 196.984 M 428 215 C 423.044 224.900, 419.214 233, 419.489 233 C 419.764 233, 424.044 224.900, 429 215 C 433.956 205.100, 437.786 197, 437.511 197 C 437.236 197, 432.956 205.100, 428 215 M 625 198.985 C 627.443 199.782, 638.742 200.354, 637.917 199.639 C 637.688 199.440, 634.125 199.028, 630 198.724 C 625.560 198.395, 623.520 198.502, 625 198.985 M 647.500 201.057 C 649.700 201.512, 652.625 201.859, 654 201.827 C 655.604 201.791, 655.066 201.473, 652.500 200.943 C 650.300 200.488, 647.375 200.141, 646 200.173 C 644.396 200.209, 644.934 200.527, 647.500 201.057 M 686 212 C 687.375 213.076, 689.106 213.966, 689.846 213.978 C 690.586 213.990, 692.524 214.949, 694.153 216.109 C 695.782 217.269, 697.338 217.995, 697.610 217.723 C 698.302 217.032, 691.596 213, 689.754 213 C 688.924 213, 687.685 212.325, 687 211.500 C 686.315 210.675, 685.248 210.010, 684.628 210.022 C 684.007 210.034, 684.625 210.924, 686 212 M 111.826 216.750 C 115.902 225.591, 135.306 263.588, 136.212 264.500 C 136.758 265.050, 131.296 253.688, 124.074 239.250 C 116.851 224.813, 110.752 213, 110.520 213 C 110.288 213, 110.876 214.688, 111.826 216.750 M 705 222.602 C 705 223.446, 707.763 226, 708.679 226.002 C 709.130 226.004, 711.056 227.335, 712.958 228.961 C 714.861 230.586, 716.617 231.716, 716.861 231.472 C 717.105 231.228, 716.019 230.017, 714.448 228.780 C 709.964 225.254, 705 222.007, 705 222.602 M 718.028 232.024 C 718.013 232.313, 721.263 235.942, 725.250 240.089 C 729.237 244.236, 733.990 249.400, 735.812 251.565 C 738.983 255.332, 739.027 255.351, 736.836 252 C 734.565 248.526, 718.081 231.019, 718.028 232.024 M 409.050 252.141 C 405.588 258.811, 403.243 263.968, 403.840 263.599 C 405.025 262.867, 416.215 240.882, 415.677 240.344 C 415.495 240.161, 412.512 245.470, 409.050 252.141 M 948.517 247.500 C 948.947 249.700, 949.856 254.425, 950.537 258 C 951.219 261.575, 951.826 263.527, 951.888 262.338 C 952.035 259.502, 949.228 244.881, 948.387 244.103 C 948.028 243.772, 948.087 245.300, 948.517 247.500 M 739.047 256.292 C 739.021 256.727, 739.922 258.073, 741.048 259.282 C 742.175 260.492, 744.672 264.298, 746.597 267.741 C 748.523 271.183, 750.327 274, 750.607 274 C 750.887 274, 749.627 271.366, 747.808 268.147 C 744.323 261.982, 739.127 254.949, 739.047 256.292 M 399.962 269.772 C 396.611 276.330, 396.491 276.663, 398.089 274.967 C 399.992 272.947, 403.438 266.105, 402.849 265.516 C 402.590 265.256, 401.290 267.172, 399.962 269.772 M 137 266.365 C 137 267.472, 146.240 285.094, 146.620 284.713 C 146.918 284.416, 138.373 267.203, 137.372 266.083 C 137.168 265.854, 137 265.981, 137 266.365 M 954.770 292 C 955.050 298.875, 955.441 304.688, 955.639 304.917 C 956.304 305.685, 955.834 289.559, 955.044 284.500 C 954.563 281.420, 954.458 284.300, 954.770 292 M 755.494 286 C 757.705 293.448, 760.952 302.292, 760.974 300.925 C 761.004 299.090, 756.308 284.955, 755.380 284.088 C 755.034 283.764, 755.086 284.625, 755.494 286 M 147 286.363 C 147 287.497, 156.017 304.411, 157.203 305.500 C 157.801 306.050, 155.932 302, 153.049 296.500 C 147.719 286.331, 147 285.126, 147 286.363 M 380.975 307.099 C 375.414 318.153, 371.007 327.338, 371.182 327.510 C 371.357 327.681, 375.982 318.975, 381.460 308.161 C 393.254 284.882, 392.239 287, 391.602 287 C 391.318 287, 386.536 296.044, 380.975 307.099 M 956.430 329 C 956.430 341.925, 956.573 347.212, 956.747 340.750 C 956.921 334.288, 956.921 323.712, 956.747 317.250 C 956.573 310.788, 956.430 316.075, 956.430 329 M 763.374 327.500 C 763.376 333.550, 763.541 335.896, 763.740 332.713 C 763.939 329.531, 763.937 324.581, 763.736 321.713 C 763.535 318.846, 763.372 321.450, 763.374 327.500 M 371.044 329.328 C 370.982 330.493, 386.250 362.084, 386.671 361.662 C 386.861 361.472, 383.433 353.933, 379.053 344.908 C 374.672 335.884, 371.069 328.873, 371.044 329.328 M 168 344.787 C 161.853 357.653, 161.862 358.568, 168.020 346.662 C 170.818 341.251, 172.971 336.496, 172.804 336.096 C 172.637 335.696, 170.475 339.607, 168 344.787 M 760.118 356.118 C 759.468 360.051, 759.130 363.463, 759.367 363.700 C 759.604 363.937, 760.338 360.922, 761 357 C 761.662 353.078, 761.999 349.666, 761.751 349.417 C 761.502 349.169, 760.767 352.184, 760.118 356.118 M 955.328 360.500 C 955.333 364.350, 955.513 365.802, 955.730 363.728 C 955.946 361.653, 955.943 358.503, 955.722 356.728 C 955.501 354.952, 955.324 356.650, 955.328 360.500 M 157.500 366 C 155.014 370.950, 153.205 375, 153.480 375 C 153.755 375, 156.014 370.950, 158.500 366 C 160.986 361.050, 162.795 357, 162.520 357 C 162.245 357, 159.986 361.050, 157.500 366 M 387.062 363.500 C 387.078 364.050, 388.209 366.525, 389.576 369 C 390.980 371.542, 391.783 372.412, 391.422 371 C 390.722 368.263, 387.016 361.888, 387.062 363.500 M 954.328 376.500 C 954.333 380.350, 954.513 381.802, 954.730 379.728 C 954.946 377.653, 954.943 374.503, 954.722 372.728 C 954.501 370.952, 954.324 372.650, 954.328 376.500 M 393.051 376.583 C 393.122 377.875, 402.887 396.686, 402.949 395.651 C 402.996 394.869, 394.283 377.028, 393.393 376.083 C 393.177 375.854, 393.023 376.079, 393.051 376.583 M 753.052 383.218 C 752.382 385.023, 751.197 387.978, 750.417 389.784 C 749.638 391.590, 749.018 393.615, 749.039 394.284 C 749.083 395.649, 751.436 390.544, 753.530 384.539 C 755.200 379.751, 754.774 378.574, 753.052 383.218 M 745.997 400.507 C 745.473 401.886, 744.348 404.361, 743.496 406.007 C 742.645 407.653, 742.174 409, 742.449 409 C 743.023 409, 745.593 404.201, 746.997 400.507 C 747.522 399.128, 747.725 398, 747.450 398 C 747.175 398, 746.522 399.128, 745.997 400.507 M 950.600 406.600 C 950.225 410.259, 950.122 413.456, 950.371 413.705 C 950.620 413.954, 951.143 411.177, 951.533 407.533 C 951.923 403.890, 952.026 400.693, 951.762 400.429 C 951.498 400.164, 950.975 402.941, 950.600 406.600 M 137.318 404.707 C 136.685 406.243, 135.024 409.863, 133.629 412.750 C 132.234 415.637, 131.291 418, 131.533 418 C 132.331 418, 139.118 403.854, 138.791 402.872 C 138.615 402.345, 137.952 403.170, 137.318 404.707 M 739.880 412.250 C 739.225 413.488, 737.971 415.608, 737.094 416.961 C 736.113 418.477, 735.986 419.123, 736.764 418.643 C 738.072 417.838, 742.416 410, 741.556 410 C 741.289 410, 740.535 411.012, 739.880 412.250 M 412.097 416.500 C 412.097 417.050, 413.628 420.425, 415.500 424 C 417.372 427.575, 418.903 430.050, 418.903 429.500 C 418.903 428.950, 417.372 425.575, 415.500 422 C 413.628 418.425, 412.097 415.950, 412.097 416.500 M 122.568 434.001 C 118.383 442.212, 117.801 444.761, 121.768 437.500 C 125.086 431.428, 127.101 427, 126.547 427 C 126.321 427, 124.530 430.151, 122.568 434.001 M 723 435.277 C 723 436.628, 709.994 450, 708.679 450 C 707.749 450, 703 454.644, 703 455.553 C 703 456.539, 714.986 446.062, 719.500 441.130 C 724.257 435.933, 725.490 434, 724.050 434 C 723.472 434, 723 434.575, 723 435.277 M 112.384 454.250 C 109.287 460.438, 106.245 465.831, 105.626 466.235 C 105.007 466.639, 104.853 466.976, 105.285 466.985 C 105.717 466.993, 105.589 467.900, 105 469 C 104.411 470.100, 104.167 471, 104.458 471 C 104.749 471, 108.143 464.700, 112 457 C 115.857 449.300, 118.789 443, 118.515 443 C 118.241 443, 115.482 448.063, 112.384 454.250 M 427.246 449 C 429.227 453.763, 434.892 464.661, 434.952 463.824 C 435.012 462.984, 427.292 446.950, 426.423 446.112 C 426.075 445.775, 426.445 447.075, 427.246 449 M 936.158 470.158 C 934.971 474.105, 934.174 477.508, 934.387 477.720 C 934.599 477.932, 935.751 474.885, 936.947 470.947 C 938.143 467.010, 938.940 463.607, 938.719 463.385 C 938.497 463.163, 937.344 466.211, 936.158 470.158 M 436.607 468 C 437.896 472.700, 444.405 485.284, 444.853 483.941 C 445.099 483.203, 444.783 482.428, 444.150 482.217 C 443.517 482.006, 443 481.481, 443 481.051 C 443 480.621, 441.407 476.946, 439.461 472.885 C 437.514 468.823, 436.230 466.625, 436.607 468 M 676.500 470.055 C 674.300 471.096, 671.487 471.959, 670.250 471.974 C 669.013 471.988, 668 472.428, 668 472.952 C 668 474.082, 675.167 472.061, 679.500 469.708 C 683.617 467.474, 681.418 467.728, 676.500 470.055 M 640 479 C 636.572 479.722, 636.562 479.738, 639.500 479.811 C 641.150 479.851, 644.300 479.512, 646.500 479.057 C 650.500 478.230, 650.500 478.230, 647 478.247 C 645.075 478.256, 641.925 478.595, 640 479 M 623.500 481 C 620.133 481.603, 619.975 481.727, 622.500 481.784 C 624.150 481.821, 627.525 481.491, 630 481.051 C 634.038 480.333, 634.140 480.252, 631 480.267 C 629.075 480.276, 625.700 480.606, 623.500 481 M 538.285 482.994 C 557.967 483.338, 582.492 483.361, 592.785 483.046 C 603.642 482.713, 588.617 482.450, 557 482.421 C 506.080 482.373, 504.850 482.410, 538.285 482.994 M 469.102 484.500 C 469.102 485.050, 471.306 489.775, 474 495 C 476.694 500.225, 478.898 504.050, 478.898 503.500 C 478.898 502.950, 476.694 498.225, 474 493 C 471.306 487.775, 469.102 483.950, 469.102 484.500 M 445.102 486.500 C 445.102 487.050, 447.306 491.775, 450 497 C 452.694 502.225, 454.898 506.050, 454.898 505.500 C 454.898 504.950, 452.694 500.225, 450 495 C 447.306 489.775, 445.102 485.950, 445.102 486.500 M 922.739 504.998 C 921.315 508.299, 920.366 511, 920.630 511 C 921.298 511, 926.172 499.839, 925.707 499.374 C 925.499 499.166, 924.164 501.697, 922.739 504.998 M 485.063 517.148 C 484.972 518.081, 495.942 541, 496.479 541 C 496.726 541, 496.088 539.087, 495.060 536.750 C 492.249 530.359, 485.134 516.408, 485.063 517.148 M 462.090 522.500 C 462.090 523.050, 463.175 525.525, 464.500 528 C 465.825 530.475, 466.910 532.050, 466.910 531.500 C 466.910 530.950, 465.825 528.475, 464.500 526 C 463.175 523.525, 462.090 521.950, 462.090 522.500 M 911.039 527.149 C 909.338 530.092, 905.894 535.650, 903.386 539.500 C 900.869 543.364, 899.936 545.340, 901.304 543.911 C 902.667 542.487, 904.576 539.787, 905.546 537.911 C 907.284 534.549, 908.421 532.735, 912.903 526.171 C 914.153 524.341, 914.941 522.608, 914.654 522.320 C 914.366 522.033, 912.740 524.206, 911.039 527.149 M 271.265 533 C 274.662 541.727, 285.852 565.281, 285.956 563.923 C 286.022 563.065, 272.120 532.774, 271.346 532.089 C 270.980 531.765, 270.944 532.175, 271.265 533 M 69.450 538.099 C 68.028 540.904, 67.033 543.367, 67.238 543.571 C 67.443 543.776, 68.818 541.482, 70.295 538.472 C 71.771 535.462, 72.766 533, 72.506 533 C 72.246 533, 70.871 535.295, 69.450 538.099 M 251.200 548.200 C 250.002 551.035, 249.181 553.514, 249.375 553.708 C 249.569 553.902, 250.720 551.753, 251.933 548.933 C 253.147 546.113, 253.968 543.635, 253.759 543.425 C 253.549 543.216, 252.398 545.365, 251.200 548.200 M 58.500 560 C 54.368 568.250, 51.212 575, 51.487 575 C 51.762 575, 55.368 568.250, 59.500 560 C 63.632 551.750, 66.788 545, 66.513 545 C 66.238 545, 62.632 551.750, 58.500 560 M 501.104 550.500 C 501.104 551.050, 504.207 557.575, 508 565 C 511.793 572.425, 514.896 578.050, 514.896 577.500 C 514.896 576.950, 511.793 570.425, 508 563 C 504.207 555.575, 501.104 549.950, 501.104 550.500 M 889.019 559.250 C 885.489 563.788, 875.603 574.470, 867.050 582.990 C 858.498 591.509, 852.931 597.359, 854.680 595.990 C 863.108 589.390, 891.734 558.642, 895.401 552.250 C 897.139 549.220, 894.977 551.591, 889.019 559.250 M 479.068 558.139 C 479.030 558.491, 480.800 562.424, 483 566.879 C 485.200 571.334, 487 575.407, 487 575.931 C 487 576.454, 487.449 577.159, 487.997 577.498 C 489.186 578.233, 488.026 574.932, 485.038 569.074 C 483.917 566.877, 483 564.387, 483 563.540 C 483 562.693, 482.619 562, 482.153 562 C 481.687 562, 480.817 560.987, 480.220 559.750 C 479.624 558.513, 479.105 557.788, 479.068 558.139 M 239.667 575.167 C 238.202 578.561, 237.164 581.498, 237.360 581.694 C 237.556 581.890, 238.919 579.278, 240.389 575.889 C 241.859 572.500, 242.896 569.563, 242.695 569.362 C 242.494 569.161, 241.131 571.773, 239.667 575.167 M 489.097 579.500 C 489.097 580.050, 490.628 583.425, 492.500 587 C 494.372 590.575, 495.903 593.050, 495.903 592.500 C 495.903 591.950, 494.372 588.575, 492.500 585 C 490.628 581.425, 489.097 578.950, 489.097 579.500 M 293.094 580.500 C 293.094 581.050, 294.402 583.975, 296 587 C 297.598 590.025, 298.906 592.050, 298.906 591.500 C 298.906 590.950, 297.598 588.025, 296 585 C 294.402 581.975, 293.094 579.950, 293.094 580.500 M 229.684 598.684 C 228.226 602.359, 227.195 605.528, 227.393 605.726 C 227.591 605.924, 228.954 603.087, 230.421 599.421 C 231.889 595.755, 232.920 592.586, 232.712 592.379 C 232.505 592.172, 231.142 595.009, 229.684 598.684 M 844.679 602.990 C 837.226 609.074, 835.356 611.068, 840.581 607.359 C 846.164 603.396, 851.330 598.989, 850.876 598.578 C 850.669 598.391, 847.881 600.376, 844.679 602.990 M 525.049 599.500 C 525.027 600.050, 526.131 602.714, 527.504 605.419 C 528.877 608.125, 529.980 609.700, 529.955 608.919 C 529.901 607.241, 525.109 598.039, 525.049 599.500 M 303.094 602.500 C 303.094 603.050, 304.402 605.975, 306 609 C 307.598 612.025, 308.906 614.050, 308.906 613.500 C 308.906 612.950, 307.598 610.025, 306 607 C 304.402 603.975, 303.094 601.950, 303.094 602.500 M 831 613.637 C 825.556 617.913, 824.882 618.600, 827.500 617.205 C 829.678 616.044, 836.812 610.075, 836 610.092 C 835.725 610.098, 833.475 611.693, 831 613.637 M 506.045 615.750 C 506.106 616.760, 510.897 625.668, 510.955 624.877 C 511.025 623.911, 506.964 615, 506.453 615 C 506.204 615, 506.020 615.337, 506.045 615.750 M 315.090 628.500 C 315.090 629.050, 316.175 631.525, 317.500 634 C 318.825 636.475, 319.910 638.050, 319.910 637.500 C 319.910 636.950, 318.825 634.475, 317.500 632 C 316.175 629.525, 315.090 627.950, 315.090 628.500 M 539.094 628.500 C 539.094 629.050, 540.402 631.975, 542 635 C 543.598 638.025, 544.906 640.050, 544.906 639.500 C 544.906 638.950, 543.598 636.025, 542 633 C 540.402 629.975, 539.094 627.950, 539.094 628.500 M 515.099 634.500 C 515.099 635.050, 516.854 638.875, 519 643 C 521.146 647.125, 522.901 650.050, 522.901 649.500 C 522.901 648.950, 521.146 645.125, 519 641 C 516.854 636.875, 515.099 633.950, 515.099 634.500 M 13.894 647.147 C 4.412 665.861, 0.100 674.996, 0.781 674.925 C 1.611 674.838, 18.997 639.679, 18.474 639.147 C 18.283 638.952, 16.222 642.552, 13.894 647.147 M 548.710 648.465 C 550.742 652.570, 552.567 655.767, 552.766 655.567 C 553.212 655.122, 546.164 641, 545.496 641 C 545.232 641, 546.679 644.359, 548.710 648.465 M 731 662 C 727.425 662.994, 725.400 663.844, 726.500 663.890 C 727.600 663.935, 731.200 663.120, 734.500 662.078 C 742.129 659.668, 739.593 659.612, 731 662 M 708.500 667 C 705.500 667.763, 705.500 667.763, 708.500 667.811 C 710.150 667.838, 712.400 667.473, 713.500 667 C 715.500 666.141, 715.500 666.141, 713.500 666.189 C 712.400 666.215, 710.150 666.580, 708.500 667 M 197.841 673.044 C 195.649 677.829, 194.682 678.924, 192.341 679.275 C 189.500 679.700, 189.500 679.700, 192.566 679.850 C 195.374 679.987, 195.873 679.496, 198.494 674.012 C 200.069 670.718, 201.164 667.847, 200.928 667.630 C 200.693 667.414, 199.303 669.850, 197.841 673.044 M 531.052 668.500 C 531.062 669.050, 531.714 670.625, 532.500 672 C 533.286 673.375, 533.945 674.830, 533.965 675.233 C 533.984 675.636, 522.413 676.094, 508.250 676.251 C 482.500 676.535, 482.500 676.535, 508.691 676.768 C 523.096 676.895, 535.062 676.663, 535.283 676.250 C 535.503 675.837, 534.637 673.700, 533.358 671.500 C 532.079 669.300, 531.041 667.950, 531.052 668.500 M 684 671 C 678.500 671.674, 678.500 671.674, 684.191 671.837 C 687.321 671.927, 690.160 671.550, 690.500 671 C 690.840 670.450, 690.754 670.073, 690.309 670.163 C 689.864 670.253, 687.025 670.629, 684 671 M 636 675 C 628.500 675.640, 628.500 675.640, 635 675.703 C 638.575 675.738, 644.425 675.437, 648 675.036 C 654.500 674.305, 654.500 674.305, 649 674.333 C 645.975 674.348, 640.125 674.648, 636 675 M 10.296 675.744 C 14.583 675.932, 21.333 675.931, 25.296 675.742 C 29.258 675.552, 25.750 675.399, 17.500 675.400 C 9.250 675.401, 6.008 675.556, 10.296 675.744 M 64.750 676.740 C 68.188 676.936, 73.813 676.936, 77.250 676.740 C 80.688 676.545, 77.875 676.385, 71 676.385 C 64.125 676.385, 61.313 676.545, 64.750 676.740 M 587.199 676.744 C 591.984 676.927, 600.084 676.928, 605.199 676.746 C 610.315 676.564, 606.400 676.414, 596.500 676.413 C 586.600 676.412, 582.415 676.561, 587.199 676.744 M 100.199 677.744 C 104.984 677.927, 113.084 677.928, 118.199 677.746 C 123.315 677.564, 119.400 677.414, 109.500 677.413 C 99.600 677.412, 95.415 677.561, 100.199 677.744 M 373.820 677.749 C 388.296 677.906, 411.696 677.906, 425.820 677.749 C 439.944 677.593, 428.100 677.465, 399.500 677.465 C 370.900 677.465, 359.344 677.593, 373.820 677.749 M 168 678.942 C 178.175 679.268, 187.144 679.239, 187.931 678.876 C 188.718 678.514, 180.393 678.247, 169.431 678.283 C 149.500 678.349, 149.500 678.349, 168 678.942" stroke="none" fill="#767a7b" fill-rule="evenodd"/><path d="M 77.074 2.171 C 37.790 2.637, 5.402 3.264, 5.102 3.565 C 4.632 4.034, 34.617 64.619, 36.001 66 C 36.277 66.275, 44.561 82.475, 54.409 102 C 76.235 145.273, 98.535 189.226, 111.232 214 C 116.447 224.175, 132.551 255.891, 147.019 284.479 C 173.324 336.458, 173.324 336.458, 160.973 360.979 C 154.181 374.466, 148.370 385.725, 148.061 386 C 147.753 386.275, 142.325 396.819, 136 409.431 C 129.675 422.043, 119.182 442.743, 112.682 455.431 C 106.182 468.119, 90.708 498.525, 78.294 523 C 65.881 547.475, 53.947 570.835, 51.773 574.910 C 43.227 590.938, 2 672.787, 2 673.726 C 2 674.885, 19.021 675.336, 176.799 678.361 C 195.098 678.712, 195.098 678.712, 196.524 675.955 C 197.308 674.438, 202.701 662.015, 208.509 648.349 C 214.316 634.682, 220.836 619.450, 222.996 614.500 C 225.157 609.550, 234.370 587.950, 243.469 566.500 C 263.151 520.105, 263.766 518.755, 265.036 519.179 C 265.948 519.483, 268.788 525.359, 278.965 548 C 281.067 552.675, 284.237 559.650, 286.010 563.500 C 294.059 580.977, 301.126 596.371, 305.748 606.500 C 308.509 612.550, 313.028 622.450, 315.791 628.500 C 318.554 634.550, 323.771 646.025, 327.385 654 C 330.999 661.975, 334.978 670.496, 336.228 672.936 C 338.500 677.371, 338.500 677.371, 392 677.184 C 450.090 676.981, 534 675.906, 534 675.365 C 534 674.717, 515.808 635.973, 488.518 578.500 C 485.385 571.900, 481.669 564.025, 480.261 561 C 478.853 557.975, 473.208 546.050, 467.716 534.500 C 462.223 522.950, 456.270 510.350, 454.486 506.500 C 452.701 502.650, 448.767 494.325, 445.743 488 C 440.659 477.367, 430.597 456.099, 419.722 433 C 410.586 413.593, 406.564 405.073, 398.480 388 C 393.923 378.375, 388.405 366.675, 386.217 362 C 384.030 357.325, 379.711 348.216, 376.620 341.759 C 373.529 335.301, 371 329.281, 371 328.380 C 371 327.039, 402.236 264.640, 411.988 246.500 C 413.467 243.750, 423.101 224.850, 433.398 204.500 C 443.696 184.150, 458.431 155.125, 466.144 140 C 473.856 124.875, 487.836 97.425, 497.209 79 C 506.582 60.575, 519.192 35.911, 525.232 24.190 C 531.272 12.470, 536.051 2.718, 535.852 2.519 C 535.654 2.320, 491.263 2.010, 437.207 1.829 C 338.922 1.500, 338.922 1.500, 329.941 24 C 325.001 36.375, 320.068 48.638, 318.980 51.250 C 314.992 60.818, 312.808 66.268, 296.934 106.250 C 286.146 133.421, 280.278 147, 279.323 147 C 278.434 147, 271.131 133.251, 260.069 110.750 C 199.779 -11.885, 209.496 0.981, 177.303 1.162 C 161.461 1.251, 116.358 1.705, 77.074 2.171 M 557.309 3.778 C 555.686 4.824, 552.393 12.046, 528.489 67 C 517.125 93.125, 505.893 118.775, 503.528 124 C 501.164 129.225, 497.528 137.550, 495.450 142.500 C 493.371 147.450, 489.904 155.325, 487.745 160 C 485.587 164.675, 482.500 171.802, 480.885 175.838 C 479.271 179.875, 477.119 184.825, 476.104 186.838 C 475.088 188.852, 473.962 191.454, 473.602 192.620 C 472.948 194.740, 472.948 194.740, 531.724 195.302 C 604.532 195.998, 646.500 198.573, 665.500 203.511 C 673.182 205.507, 685.318 210.063, 687.079 211.612 C 687.947 212.375, 689.295 213, 690.075 213 C 692.825 213, 714.143 228.242, 722.548 236.218 C 741.205 253.921, 754.881 276.985, 761.257 301.500 C 762.952 308.013, 763.350 312.659, 763.403 326.500 C 763.482 347.306, 761.161 361.658, 754.508 381.500 C 747.571 402.187, 739.057 417.659, 725.893 433.500 C 717.210 443.950, 716.558 444.629, 709.500 450.595 C 674.942 479.808, 644.936 484.977, 522.667 482.782 C 493.608 482.260, 469.637 482.030, 469.397 482.269 C 468.951 482.716, 474.348 494.124, 495.290 537 C 501.871 550.475, 514.345 576.125, 523.009 594 C 531.673 611.875, 543.766 636.723, 549.881 649.218 C 555.996 661.713, 561 672.208, 561 672.539 C 561 672.871, 561.643 673.786, 562.429 674.571 C 565.668 677.811, 640.275 675.851, 679 671.510 C 711.248 667.895, 747.893 658.874, 771.903 648.639 C 801.528 636.009, 842.828 607.283, 869.064 581.058 C 886.625 563.504, 895.185 552.450, 912.621 524.810 C 915.706 519.920, 926.125 498.059, 928.974 490.500 C 930.217 487.200, 931.564 483.825, 931.967 483 C 933.537 479.782, 942.820 447.993, 944.816 439 C 953.026 402.006, 956.792 359.330, 955.665 316.027 C 954.998 290.363, 953.942 277.216, 951.408 263 C 943.889 220.826, 934.144 193.165, 914.446 158.085 C 900.954 134.057, 874.161 103.224, 849.994 83.914 C 839.595 75.605, 820.208 62.286, 810 56.437 C 795.713 48.251, 773.014 37.819, 756 31.621 C 745.183 27.680, 717.268 19.198, 710 17.643 C 704.394 16.444, 671.116 9.922, 666 9.019 C 650.016 6.200, 617.774 3.868, 589 3.452 C 572.225 3.209, 557.964 3.355, 557.309 3.778" stroke="none" fill="#fbfbfb" fill-rule="evenodd"/></svg>