<svg width="25" height="28" viewBox="0 0 25 28" fill="none" xmlns="http://www.w3.org/2000/svg">
<g id="userIcon">
<path d="M12.5 13.6364C14.3944 13.6364 16.2112 12.918 17.5508 11.6394C18.8903 10.3607 19.6429 8.62648 19.6429 6.81818C19.6429 5.00989 18.8903 3.27566 17.5508 1.997C16.2112 0.718342 14.3944 0 12.5 0C10.6056 0 8.78878 0.718342 7.44924 1.997C6.10969 3.27566 5.35714 5.00989 5.35714 6.81818C5.35714 8.62648 6.10969 10.3607 7.44924 11.6394C8.78878 12.918 10.6056 13.6364 12.5 13.6364ZM9.94978 16.1932C4.45312 16.1932 0 20.4439 0 25.6907C0 26.5643 0.742188 27.2727 1.65737 27.2727H23.3426C24.2578 27.2727 25 26.5643 25 25.6907C25 20.4439 20.5469 16.1932 15.0502 16.1932H9.94978Z" fill="white"/>
<path d="M17.2055 11.2777C15.9613 12.4653 14.2691 13.1364 12.5 13.1364C10.7309 13.1364 9.03866 12.4653 7.79447 11.2777C6.55108 10.0908 5.85714 8.48617 5.85714 6.81818C5.85714 5.1502 6.55108 3.54555 7.79447 2.35868C9.03866 1.17105 10.7309 0.5 12.5 0.5C14.2691 0.5 15.9613 1.17105 17.2055 2.35868C18.4489 3.54555 19.1429 5.1502 19.1429 6.81818C19.1429 8.48616 18.4489 10.0908 17.2055 11.2777ZM0.5 25.6907C0.5 20.7417 4.70709 16.6932 9.94978 16.6932H15.0502C20.2929 16.6932 24.5 20.7417 24.5 25.6907C24.5 26.2665 24.0038 26.7727 23.3426 26.7727H1.65737C0.996155 26.7727 0.5 26.2665 0.5 25.6907Z" stroke="white" stroke-opacity="0.26"/>
</g>
</svg>
