<svg width="110" height="110" viewBox="0 0 110 110" fill="none" xmlns="http://www.w3.org/2000/svg">
<circle cx="55" cy="55" r="55" fill="#CBCCCD" fill-opacity="0.19"/>
<path d="M55.6111 54.4443C59.7788 54.4443 63.7758 52.864 66.7228 50.0509C69.6698 47.2379 71.3254 43.4226 71.3254 39.4443C71.3254 35.4661 69.6698 31.6508 66.7228 28.8377C63.7758 26.0247 59.7788 24.4443 55.6111 24.4443C51.4434 24.4443 47.4464 26.0247 44.4994 28.8377C41.5524 31.6508 39.8968 35.4661 39.8968 39.4443C39.8968 43.4226 41.5524 47.2379 44.4994 50.0509C47.4464 52.864 51.4434 54.4443 55.6111 54.4443ZM50.0006 60.0693C37.908 60.0693 28.1111 69.4209 28.1111 80.9639C28.1111 82.8857 29.7439 84.4443 31.7573 84.4443H79.4649C81.4783 84.4443 83.1111 82.8857 83.1111 80.9639C83.1111 69.4209 73.3142 60.0693 61.2216 60.0693H50.0006Z" fill="white"/>
<path d="M66.3775 49.6893C63.5259 52.4113 59.6535 53.9443 55.6111 53.9443C51.5687 53.9443 47.6963 52.4113 44.8446 49.6893C41.9938 46.968 40.3968 43.2823 40.3968 39.4443C40.3968 35.6064 41.9938 31.9207 44.8446 29.1994C47.6963 26.4774 51.5687 24.9443 55.6111 24.9443C59.6535 24.9443 63.5259 26.4774 66.3775 29.1994C69.2284 31.9207 70.8254 35.6064 70.8254 39.4443C70.8254 43.2823 69.2284 46.968 66.3775 49.6893ZM28.6111 80.9639C28.6111 69.7187 38.1619 60.5693 50.0006 60.5693H61.2216C73.0602 60.5693 82.6111 69.7187 82.6111 80.9639C82.6111 82.5879 81.2243 83.9443 79.4649 83.9443H31.7573C29.9979 83.9443 28.6111 82.5879 28.6111 80.9639Z" stroke="white" stroke-opacity="0.26"/>
</svg>
