<svg width="13" height="13" viewBox="0 0 13 13" fill="none" xmlns="http://www.w3.org/2000/svg">
<path id="Vector" d="M11.7646 10.6618V1.83822C11.7646 1.22917 11.2708 0.735352 10.6618 0.735352H9.19108C8.98828 0.735352 8.82357 0.570638 8.82357 0.367513C8.82357 0.164713 8.98828 0 9.19108 0H10.6618C11.6768 0 12.5 0.823242 12.5 1.83822V10.6618C12.5 11.6768 11.6768 12.5 10.6618 12.5H9.19108C8.98828 12.5 8.82357 12.3353 8.82357 12.1325C8.82357 11.9294 8.98828 11.7646 9.19108 11.7646H10.6618C11.2708 11.7646 11.7646 11.2708 11.7646 10.6618ZM0.367513 6.61751H6.83301L3.78385 9.66602C3.71712 9.73275 3.67611 9.82487 3.67611 9.92643C3.67611 10.1299 3.84082 10.2946 4.04427 10.2946C4.14551 10.2946 4.23796 10.2533 4.30436 10.1868L7.98079 6.51042C8.04753 6.44369 8.08887 6.35189 8.08887 6.25C8.08887 6.14811 8.04785 6.05632 7.98079 5.98958L4.30436 2.31315C4.23796 2.24674 4.14551 2.2054 4.04427 2.2054C3.84082 2.2054 3.67611 2.37012 3.67611 2.57357C3.67611 2.67513 3.71712 2.76725 3.78385 2.83398L6.83301 5.88249H0.367513C0.164713 5.88249 0 6.0472 0 6.25C0 6.4528 0.164713 6.61751 0.367513 6.61751Z" fill="white"/>
</svg>
