<svg width="182" height="88" viewBox="0 0 182 88" fill="none" xmlns="http://www.w3.org/2000/svg">
<g id="XDIA">
<path d="M107.422 68.6129V24.8455H116.693V68.6129H107.422Z" fill="white"/>
<path d="M125.717 64.3407C125.717 62.6551 126.16 61.3909 127.053 60.5336C127.94 59.6835 129.248 59.2549 130.977 59.2549C132.619 59.2549 133.898 59.6908 134.813 60.5627C135.721 61.4345 136.179 62.6987 136.179 64.3407C136.179 65.9101 135.714 67.1525 134.784 68.0607C133.868 68.9689 132.604 69.4266 130.977 69.4266C129.291 69.4266 127.991 68.9761 127.083 68.0897C126.167 67.2034 125.717 65.9537 125.717 64.3407Z" fill="white"/>
<path d="M172.002 68.6126L168.806 58.1793H152.851L149.683 68.6126H139.685L155.146 24.6708H166.481L182 68.6126H172.002ZM166.597 50.4198C163.669 40.9673 162.02 35.6272 161.656 34.4066C161.286 33.1714 161.017 32.1833 160.843 31.4422C160.181 33.9997 158.3 40.328 155.205 50.4198H166.597Z" fill="white"/>
<path d="M83.7178 81.8624C83.9705 81.463 84.0969 80.8943 84.0969 80.1562C84.0969 79.418 83.9705 78.8594 83.7178 78.4802C83.47 78.096 83.1035 77.9039 82.6182 77.9039C82.1379 77.9039 81.7789 78.0631 81.5413 78.3816C81.3037 78.7001 81.1798 79.2209 81.1697 79.9438V80.1637C81.1697 80.9777 81.2911 81.5641 81.5337 81.9231C81.7764 82.282 82.1632 82.4615 82.694 82.4615C83.1288 82.4615 83.47 82.2618 83.7178 81.8624ZM81.1697 77.3655C81.6652 76.6122 82.3755 76.2355 83.3007 76.2355C84.2309 76.2355 84.9488 76.5894 85.4544 77.2972C85.965 77.9999 86.2203 78.9706 86.2203 80.2092C86.2203 81.4479 85.9574 82.4135 85.4316 83.1061C84.9058 83.7987 84.1905 84.145 83.2855 84.145C82.3806 84.145 81.6753 83.819 81.1697 83.1668H81.0332L80.6844 84.0085H79.0919V73.3918H81.1697V75.8564C81.1697 76.2052 81.1445 76.7082 81.0939 77.3655H81.1697Z" fill="#C0C0C0"/>
<path d="M88.1011 87.368C87.737 87.368 87.3857 87.3301 87.047 87.2542V85.6011C87.3098 85.6567 87.5828 85.6845 87.866 85.6845C88.6344 85.6845 89.1703 85.232 89.4736 84.327L89.6026 83.9555L86.5692 76.3796H88.8518L90.2851 80.6718C90.4115 81.0308 90.4974 81.4731 90.5429 81.9989H90.5808C90.6314 81.5338 90.73 81.0914 90.8766 80.6718L92.2871 76.3796H94.5166L91.2937 84.9868C90.9954 85.7704 90.5732 86.3619 90.0272 86.7613C89.4812 87.1658 88.8392 87.368 88.1011 87.368Z" fill="#C0C0C0"/>
<path d="M104.505 78.9807L107.872 84.0085H105.46L103.14 80.232L100.819 84.0085H98.5516L101.858 78.8594L98.764 74.0288H101.1L103.246 77.6233L105.354 74.0288H107.637L104.505 78.9807Z" fill="#C0C0C0"/>
<path d="M112.145 82.2644C114.182 82.2644 115.201 81.1698 115.201 78.9807C115.201 76.8372 114.256 75.7654 112.365 75.7654H111.243V82.2644H112.145ZM112.259 74.0288C113.882 74.0288 115.143 74.4585 116.043 75.3179C116.948 76.1723 117.4 77.3983 117.4 78.9959C117.4 80.5884 116.933 81.822 115.997 82.6966C115.062 83.5712 113.712 84.0085 111.948 84.0085H109.127V74.0288H112.259Z" fill="#C0C0C0"/>
<path d="M125.353 81.2406C125.353 82.1354 125.03 82.8432 124.383 83.3639C123.736 83.8847 122.856 84.145 121.744 84.145C120.631 84.145 119.668 83.9453 118.854 83.5459V81.5818C119.527 81.8751 120.096 82.0849 120.561 82.2113C121.026 82.3377 121.473 82.4008 121.903 82.4008C122.333 82.4008 122.669 82.3124 122.912 82.1354C123.159 81.9534 123.283 81.688 123.283 81.3392C123.283 81.1369 123.228 80.9625 123.116 80.8159C123.005 80.6642 122.851 80.5227 122.654 80.3912C122.462 80.2547 122.039 80.0348 121.387 79.7315C120.74 79.4231 120.267 79.1375 119.969 78.8746C119.302 78.2982 118.968 77.5753 118.968 76.7057C118.968 75.8361 119.266 75.1486 119.863 74.643C120.46 74.1375 121.286 73.8847 122.343 73.8847C123.238 73.8847 124.226 74.1198 125.308 74.5899L124.625 76.2355C124.095 76.0181 123.652 75.8665 123.298 75.7805C122.944 75.6946 122.585 75.6516 122.221 75.6516C121.863 75.6516 121.574 75.7426 121.357 75.9246C121.145 76.1066 121.038 76.3518 121.038 76.6602C121.038 77.0141 121.218 77.3124 121.577 77.555C121.754 77.6764 122.201 77.9064 122.919 78.2451C123.844 78.69 124.481 79.1375 124.83 79.5874C125.179 80.0374 125.353 80.5884 125.353 81.2406Z" fill="#C0C0C0"/>
<path d="M131.421 78.4726C131.173 78.0985 130.774 77.9115 130.223 77.9115C129.672 77.9115 129.272 78.0985 129.025 78.4726C128.777 78.8417 128.653 79.413 128.653 80.1865C128.653 80.9549 128.779 81.5288 129.032 81.9079C129.285 82.2871 129.684 82.4767 130.23 82.4767C130.776 82.4767 131.173 82.2871 131.421 81.9079C131.674 81.5288 131.8 80.9549 131.8 80.1865C131.8 79.413 131.674 78.8417 131.421 78.4726ZM130.246 76.2355C131.353 76.2204 132.248 76.5768 132.93 77.3048C133.613 78.0277 133.944 78.9858 133.924 80.1789C133.924 81.4226 133.595 82.3958 132.938 83.0985C132.285 83.7962 131.375 84.145 130.208 84.145C129.1 84.1551 128.206 83.7962 127.523 83.0682C126.846 82.3402 126.515 81.3771 126.53 80.1789C126.53 78.9352 126.853 77.9671 127.5 77.2745C128.153 76.5818 129.068 76.2355 130.246 76.2355Z" fill="#C0C0C0"/>
<path d="M139.866 76.3796V77.9418H138.069V84.0085H135.983V77.9418H134.838V76.9408L135.983 76.3796V75.8184C135.983 74.9489 136.198 74.3144 136.628 73.915C137.057 73.5156 137.743 73.3159 138.683 73.3159C139.401 73.3159 140.038 73.4221 140.594 73.6344L140.063 75.1663C139.638 75.0348 139.267 74.9691 138.948 74.9691C138.635 74.9691 138.41 75.0525 138.273 75.2194C138.137 75.3862 138.069 75.6137 138.069 75.9019V76.3796H139.866Z" fill="#C0C0C0"/>
<path d="M143.375 81.6198C143.375 81.9079 143.456 82.1253 143.617 82.2719C143.779 82.4135 144.024 82.4843 144.353 82.4843C144.682 82.4843 145.096 82.4059 145.597 82.2492V83.7962C145.081 84.0288 144.426 84.145 143.633 84.145C142.844 84.145 142.257 83.9378 141.873 83.5232C141.489 83.1086 141.297 82.4742 141.297 81.6198V77.9418H140.296V77.0621L141.441 76.3644L142.048 74.7568H143.375V76.3796H145.513V77.9418H143.375V81.6198Z" fill="#C0C0C0"/>
<path d="M155.673 84.0085H153.405L152.821 81.3392L152.025 77.9721H151.98L150.584 84.0085H148.347L146.178 76.3796H148.256L149.136 79.7542C149.267 80.3154 149.409 81.1521 149.561 82.2644H149.606C149.621 81.8902 149.738 81.1471 149.955 80.0348L150.895 76.3796H153.185L154.08 80.0348C154.293 81.0561 154.409 81.7992 154.429 82.2644H154.467C154.507 81.9863 154.581 81.5515 154.687 80.96C154.793 80.3634 154.869 79.9615 154.914 79.7542L155.832 76.3796H157.872L155.673 84.0085Z" fill="#C0C0C0"/>
<path d="M165.403 84.0085H163.947L163.546 82.9696H163.492C163.139 83.4145 162.777 83.7229 162.408 83.8948C162.039 84.0616 161.556 84.145 160.96 84.145C160.221 84.145 159.643 83.9352 159.223 83.5156C158.803 83.0909 158.594 82.4868 158.594 81.7032C158.594 80.9196 158.872 80.3331 159.428 79.9438C159.989 79.5545 160.848 79.3397 162.006 79.2992L163.333 79.2613V78.9276C163.333 78.1541 162.936 77.7674 162.143 77.7674C161.541 77.7674 160.826 77.9494 159.996 78.3134L159.306 76.9105C160.181 76.4504 161.144 76.2204 162.196 76.2204C163.252 76.2204 164.051 76.4479 164.592 76.9029C165.133 77.3528 165.403 78.0277 165.403 78.9276V84.0085ZM163.333 81.1041V80.4747L162.529 80.4974C161.918 80.5176 161.465 80.6289 161.172 80.8311C160.879 81.0283 160.732 81.3316 160.732 81.7411C160.732 82.3275 161.068 82.6208 161.741 82.6208C162.226 82.6208 162.613 82.4843 162.901 82.2113C163.189 81.9332 163.333 81.5641 163.333 81.1041Z" fill="#C0C0C0"/>
<path d="M171.801 76.2355C172.064 76.2355 172.296 76.2558 172.499 76.2962L172.347 78.2451C172.175 78.1996 171.97 78.1769 171.733 78.1769C171.065 78.1769 170.545 78.3488 170.171 78.6926C169.802 79.0313 169.617 79.509 169.617 80.1258V84.0085H167.539V76.3796H169.117L169.42 77.6612H169.526C169.769 77.2264 170.092 76.8801 170.497 76.6223C170.901 76.3644 171.336 76.2355 171.801 76.2355Z" fill="#C0C0C0"/>
<path d="M178.214 79.3296C178.209 78.819 178.078 78.4221 177.82 78.139C177.562 77.8559 177.211 77.7143 176.766 77.7143C176.326 77.7143 175.98 77.8559 175.727 78.139C175.474 78.417 175.33 78.8139 175.295 79.3296H178.214ZM179.739 83.6066C179.021 83.9656 178.126 84.145 177.054 84.145C175.826 84.145 174.865 83.8088 174.172 83.1364C173.485 82.459 173.141 81.4883 173.141 80.2244C173.141 78.9605 173.46 77.9797 174.097 77.282C174.744 76.5844 175.616 76.2355 176.713 76.2355C177.815 76.2355 178.667 76.5439 179.268 77.1607C179.87 77.7775 180.171 78.6243 180.171 79.7012V80.7097H175.249C175.269 81.3063 175.444 81.7714 175.772 82.1051C176.106 82.4337 176.566 82.598 177.153 82.598C178.027 82.598 178.889 82.3983 179.739 81.9989V83.6066Z" fill="#C0C0C0"/>
<path fill-rule="evenodd" clip-rule="evenodd" d="M13.5516 0.104168C12.6128 0.137212 13.9698 0.143183 16.5671 0.117242C21.2895 0.0700947 21.2895 0.0700948 21.5537 0.575536C21.8731 1.18659 21.9072 1.13204 21.6157 0.476301C21.404 -8.22544e-06 21.404 -8.21147e-06 18.3312 0.0219183C16.6412 0.0340653 14.4904 0.0710212 13.5516 0.104168ZM34.9861 0.123521C34.9178 0.191462 34.865 0.318801 34.8685 0.406609C34.8722 0.497404 34.918 0.459212 34.9748 0.317977C35.0744 0.0698888 35.0744 0.0698888 44.4079 0.12033C49.5413 0.148124 51.949 0.138962 49.7585 0.100051C42.6223 -0.0267729 35.1251 -0.0148317 34.9861 0.123521ZM0.482687 0.274536C0.370446 0.386227 0.403032 0.565139 0.574549 0.778124C0.729928 0.971139 0.731687 0.970315 0.626273 0.753109C0.566273 0.629374 0.517135 0.479698 0.517135 0.420301C0.517135 0.348756 1.37979 0.302536 3.07748 0.282977C5.63783 0.253536 5.63783 0.253536 3.09476 0.229756C1.69603 0.21658 0.520549 0.236756 0.482687 0.274536ZM54.9013 1.39402C54.5768 2.04276 54.334 2.57352 54.3617 2.57352C54.4302 2.57352 55.5736 0.296359 55.5278 0.250859C55.5078 0.230889 55.2259 0.745286 54.9013 1.39402ZM57.4358 0.499154C57.3346 0.649242 57.1286 1.04999 56.9784 1.3897C56.8281 1.7294 56.5312 2.38977 56.3187 2.85723C56.1061 3.32468 55.956 3.73079 55.9851 3.75971C56.014 3.78864 56.2607 3.2904 56.5329 2.65248C57.1459 1.21655 57.5092 0.486286 57.66 0.387051C57.7237 0.345154 59.149 0.323639 60.8275 0.339286C62.689 0.356477 63.4959 0.338359 62.8965 0.292654C62.3559 0.251477 60.9476 0.219668 59.7669 0.221933C57.6202 0.226256 57.6202 0.226256 57.4358 0.499154ZM64.5602 0.449536C64.584 0.47033 65.0223 0.512536 65.5344 0.543315C66.1906 0.582742 66.328 0.573889 65.9999 0.513154C65.5294 0.426065 64.4807 0.379742 64.5602 0.449536ZM66.7326 0.654698C66.7564 0.675183 67.1016 0.717801 67.4999 0.749609C67.9376 0.784609 68.1422 0.772771 68.0171 0.719756C67.8205 0.636477 66.6421 0.576771 66.7326 0.654698ZM0.724032 1.06471C0.724032 1.18474 1.88441 3.40909 1.92558 3.36802C1.95889 3.33487 0.874342 1.16179 0.762721 1.03795C0.741411 1.01437 0.724032 1.02642 0.724032 1.06471ZM69.8361 1.0677C69.8599 1.0887 70.112 1.1342 70.3965 1.16858C70.7447 1.21079 70.846 1.2007 70.7068 1.13759C70.5101 1.04845 69.7454 0.987095 69.8361 1.0677ZM22.2774 2.03308C22.526 2.52854 22.8119 3.10923 22.9127 3.32355C23.0135 3.53787 23.1159 3.69332 23.1404 3.66902C23.1922 3.61745 21.9548 1.13234 21.8773 1.13234C21.8488 1.13234 22.0288 1.53773 22.2774 2.03308ZM77.8965 3.13002C77.8965 3.15298 78.1059 3.24284 78.362 3.32962C78.9199 3.51883 78.9791 3.46293 78.4528 3.24398C78.0786 3.08843 77.8965 3.05117 77.8965 3.13002ZM33.541 3.62887C33.4781 3.75611 33.4004 3.97609 33.3683 4.11764C33.3362 4.25918 33.4041 4.17137 33.5191 3.92246C33.7315 3.46314 33.7508 3.20414 33.541 3.62887ZM2.07393 3.6263C2.07114 3.66748 2.23127 4.03807 2.42969 4.44983C2.6282 4.86159 2.78886 5.12904 2.78679 5.04411C2.78286 4.88486 2.08282 3.49268 2.07393 3.6263ZM53.5546 3.96457C53.46 4.16201 53.4227 4.32352 53.4718 4.32352C53.5744 4.32352 53.8446 3.72296 53.7738 3.65234C53.7478 3.62661 53.6492 3.76702 53.5546 3.96457ZM55.5696 4.60959C55.389 4.99254 55.2443 5.35118 55.248 5.40667C55.2517 5.46205 55.4152 5.16434 55.6113 4.74507C55.8074 4.32579 55.9521 3.96714 55.9328 3.94799C55.9137 3.92884 55.7501 4.22655 55.5696 4.60959ZM23.4842 4.44437C23.4834 4.48257 23.7408 5.01529 24.0562 5.6282C24.3717 6.24111 24.5986 6.62992 24.5605 6.49208C24.4432 6.06837 23.4887 4.25218 23.4842 4.44437ZM82.862 5.28273C83.0042 5.35664 83.2602 5.50384 83.4309 5.60977C83.7381 5.80031 83.7391 5.80032 83.5291 5.60339C83.2608 5.3517 82.9033 5.14684 82.7341 5.14767C82.6622 5.14808 82.7197 5.20882 82.862 5.28273ZM2.90276 5.35293C2.90069 5.43786 3.06 5.78529 3.25665 6.12499C3.45341 6.4647 3.61345 6.69631 3.61241 6.6397C3.6092 6.46336 2.90669 5.18967 2.90276 5.35293ZM84.8361 6.42136C85.0495 6.61427 86.9122 7.82918 86.8561 7.7389C86.8156 7.67364 86.5637 7.47218 86.2963 7.29121C86.029 7.11024 85.787 6.93586 85.7585 6.90364C85.7301 6.87152 85.5788 6.77959 85.4223 6.6993C85.2658 6.61911 85.1378 6.51493 85.1378 6.46789C85.1378 6.42084 85.0602 6.38234 84.9654 6.38234C84.8706 6.38234 84.8124 6.39984 84.8361 6.42136ZM24.8484 7.25508C24.9721 7.50862 25.093 7.69659 25.1169 7.67271C25.1786 7.61146 24.7919 6.79998 24.6995 6.79679C24.6576 6.79534 24.7245 7.00154 24.8484 7.25508ZM50.9974 8.98161C50.4723 10.0148 50.0904 10.814 50.1484 10.7573C50.2064 10.7007 50.6089 9.95955 51.0425 9.11028C51.4762 8.26102 51.9057 7.46189 51.997 7.33455C52.0884 7.20721 52.1156 7.10293 52.0574 7.10293C51.9994 7.10293 51.5224 7.94839 50.9974 8.98161ZM54.1752 7.7772C54.0219 8.08829 53.8986 8.39968 53.9012 8.46917C53.9038 8.53865 54.0439 8.2988 54.2126 7.93604C54.5896 7.12496 54.5596 6.99732 54.1752 7.7772ZM25.4139 8.37909C25.5687 8.69317 25.7134 8.93209 25.7355 8.91006C25.799 8.84706 25.3814 7.96115 25.2503 7.88055C25.1855 7.84071 25.2591 8.06502 25.4139 8.37909ZM86.9999 7.85554C86.9999 7.88086 87.4073 8.2253 87.9051 8.62101C88.403 9.01671 89.358 9.86762 90.0274 10.5121C90.6969 11.1565 91.2439 11.6567 91.2429 11.6235C91.2395 11.502 88.1967 8.64149 87.8029 8.3897C87.7143 8.33308 87.4975 8.17939 87.3209 8.04814C87.1443 7.91689 86.9999 7.83021 86.9999 7.85554ZM4.93489 9.31328C5.08769 9.62314 5.22993 9.85929 5.25114 9.83818C5.29758 9.79196 4.77579 8.74999 4.70617 8.74999C4.67927 8.74999 4.7822 9.00343 4.93489 9.31328ZM53.5022 9.32121C53.3777 9.5762 53.2762 9.84158 53.2768 9.91086C53.2773 9.98014 53.3947 9.78681 53.5376 9.48139C53.6805 9.17586 53.7819 8.91058 53.763 8.89174C53.7441 8.8729 53.6267 9.06612 53.5022 9.32121ZM6.15507 11.7353C6.63931 12.6978 7.05879 13.4853 7.08724 13.4853C7.11569 13.4853 6.74276 12.6978 6.25851 11.7353C5.77427 10.7728 5.35479 9.98528 5.32634 9.98528C5.29789 9.98528 5.67083 10.7728 6.15507 11.7353ZM52.7219 11.1026C52.5714 11.4364 52.4503 11.7501 52.4529 11.7996C52.4555 11.8491 52.5956 11.5929 52.7643 11.2302C52.9329 10.8674 53.054 10.5537 53.0333 10.5331C53.0125 10.5126 52.8724 10.7689 52.7219 11.1026ZM49.7569 11.403C49.4041 12.0966 49.2451 12.4559 49.2909 12.4559C49.3541 12.4559 50.0846 10.9961 50.0424 10.9541C50.0215 10.9333 49.893 11.1353 49.7569 11.403ZM26.793 11.1608C26.793 11.1844 27.2345 12.0878 27.7742 13.1681C28.5141 14.6491 28.8004 15.1294 28.938 15.1204C29.0872 15.1106 29.0907 15.1004 28.9568 15.0647C28.8654 15.0402 28.3685 14.1599 27.8308 13.0693C26.9773 11.3383 26.793 10.9994 26.793 11.1608ZM52.1063 12.5125C51.7264 13.2831 51.7615 13.3744 52.1497 12.6257C52.3214 12.2945 52.4447 12.0063 52.4234 11.9852C52.4023 11.9641 52.2596 12.2014 52.1063 12.5125ZM92.0689 12.6005C92.0689 12.6386 92.4081 13.1197 92.8227 13.6694C93.2372 14.2193 93.709 14.8659 93.8712 15.1066C94.0333 15.3473 94.1852 15.5441 94.2088 15.5441C94.2638 15.5441 94.2051 15.4499 93.4982 14.4055C93.1748 13.9276 92.825 13.4441 92.7207 13.3309C92.6164 13.2176 92.4271 12.9914 92.3 12.828C92.1728 12.6646 92.0689 12.5623 92.0689 12.6005ZM48.5981 13.6913C48.4521 13.9734 48.3748 14.1784 48.4263 14.1467C48.5462 14.0729 48.9588 13.2727 48.9045 13.2189C48.8822 13.1965 48.7443 13.4091 48.5981 13.6913ZM7.13783 13.6245C7.13783 13.7365 8.16858 15.75 8.22589 15.75C8.27224 15.75 7.27489 13.7016 7.17765 13.5968C7.15572 13.5732 7.13783 13.5857 7.13783 13.6245ZM51.2736 14.3967C51.1231 14.7306 51.0021 15.0442 51.0047 15.0937C51.0072 15.1433 51.1473 14.887 51.316 14.5243C51.4847 14.1615 51.6057 13.8478 51.585 13.8273C51.5642 13.8067 51.4241 14.063 51.2736 14.3967ZM50.5497 16.0528C50.3422 16.5047 50.1749 16.9109 50.1782 16.9555C50.1814 17.0002 50.3679 16.6472 50.5928 16.1711C50.8176 15.6951 50.9848 15.2889 50.9643 15.2684C50.9438 15.2481 50.7572 15.601 50.5497 16.0528ZM94.6551 16.4155C94.6551 16.4419 94.7947 16.6825 94.9654 16.9504C95.3459 17.5474 95.3775 17.4519 95.0073 16.8235C94.7638 16.4098 94.6551 16.2841 94.6551 16.4155ZM8.79807 16.8356C8.79527 16.8949 8.95489 17.2423 9.15269 17.6077C9.35058 17.9731 9.51124 18.2257 9.50979 18.1691C9.50596 18.0214 8.80407 16.7064 8.79807 16.8356ZM49.7253 17.865C49.6298 18.0644 49.5549 18.2839 49.559 18.3528C49.5629 18.4216 49.657 18.2743 49.768 18.0254C50.0095 17.4837 49.9733 17.3475 49.7253 17.865ZM9.62058 18.5063C9.62058 18.6312 10.028 19.3529 10.0984 19.3529C10.1391 19.3529 9.74534 18.5294 9.65958 18.435C9.63817 18.4114 9.62058 18.4435 9.62058 18.5063ZM49.1584 19.2038C48.9763 19.5711 48.8275 19.9401 48.8275 20.024C48.8275 20.1569 49.4803 20.1733 53.9223 20.1518C59.0171 20.1269 59.0171 20.1269 53.9674 20.0993C48.9176 20.0716 48.9176 20.0716 48.9894 19.8409C49.0289 19.7141 49.1747 19.3857 49.3134 19.1111C49.452 18.8365 49.5484 18.5948 49.5274 18.574C49.5064 18.5531 49.3404 18.8365 49.1584 19.2038ZM45.6153 19.4663C45.4401 19.8117 45.3138 20.1113 45.3347 20.1321C45.3554 20.1529 45.5211 19.8702 45.7025 19.5041C45.884 19.1379 46.0103 18.8382 45.9832 18.8382C45.9561 18.8382 45.7906 19.1209 45.6153 19.4663ZM61.0344 20.2778C61.7455 20.3629 63.2711 20.4093 63.1982 20.3435C63.1745 20.3221 62.5266 20.2804 61.7585 20.2509C60.8389 20.2155 60.5916 20.2246 61.0344 20.2778ZM44.2758 22.1323C43.7631 23.1515 43.3669 23.9853 43.3953 23.9853C43.4238 23.9853 43.8665 23.1515 44.3792 22.1323C44.8919 21.1132 45.2881 20.2794 45.2597 20.2794C45.2312 20.2794 44.7884 21.1132 44.2758 22.1323ZM64.6551 20.4837C64.9078 20.5658 66.0767 20.6247 65.9913 20.5511C65.9676 20.5306 65.599 20.4882 65.1723 20.4569C64.713 20.423 64.502 20.434 64.6551 20.4837ZM66.9827 20.697C67.2102 20.7439 67.5128 20.7796 67.6551 20.7763C67.821 20.7726 67.7653 20.7399 67.4999 20.6853C67.2723 20.6385 66.9697 20.6027 66.8275 20.606C66.6616 20.6097 66.7172 20.6425 66.9827 20.697ZM70.9654 21.8235C71.1077 21.9343 71.2867 22.0259 71.3633 22.0271C71.4398 22.0284 71.6403 22.1271 71.8088 22.2465C71.9773 22.3659 72.1383 22.4407 72.1665 22.4127C72.238 22.3415 71.5443 21.9265 71.3538 21.9265C71.2679 21.9265 71.1397 21.857 71.0689 21.772C70.998 21.6871 70.8876 21.6187 70.8235 21.6199C70.7592 21.6211 70.8232 21.7128 70.9654 21.8235ZM11.5681 22.3125C11.9898 23.2226 13.9971 27.134 14.0908 27.2279C14.1473 27.2845 13.5822 26.1149 12.8351 24.6287C12.0879 23.1425 11.457 21.9265 11.433 21.9265C11.409 21.9265 11.4698 22.1002 11.5681 22.3125ZM72.9309 22.9149C72.9309 23.0018 73.2168 23.2647 73.3115 23.2649C73.3582 23.2651 73.5574 23.4021 73.7542 23.5695C73.951 23.7368 74.1327 23.8531 74.1579 23.828C74.1832 23.8029 74.0708 23.6782 73.9083 23.5509C73.4444 23.1879 72.9309 22.8537 72.9309 22.9149ZM74.2787 23.8848C74.2771 23.9146 74.6133 24.2881 75.0258 24.715C75.4382 25.1419 75.9299 25.6735 76.1184 25.8964C76.4464 26.2842 76.451 26.2861 76.2243 25.9412C75.9894 25.5836 74.2841 23.7814 74.2787 23.8848ZM42.3154 25.9557C41.9573 26.6423 41.7147 27.1732 41.7764 27.1352C41.899 27.0598 43.0566 24.7967 43.001 24.7413C42.9821 24.7224 42.6735 25.269 42.3154 25.9557ZM98.1224 25.4779C98.1668 25.7044 98.2609 26.1908 98.3313 26.5588C98.4019 26.9268 98.4647 27.1278 98.4711 27.0054C98.4863 26.7134 98.1959 25.2083 98.1089 25.1282C98.0718 25.0942 98.0779 25.2515 98.1224 25.4779ZM76.453 26.383C76.4503 26.4278 76.5436 26.5663 76.66 26.6908C76.7766 26.8153 77.0349 27.2071 77.2341 27.5616C77.4333 27.9159 77.6199 28.2059 77.6489 28.2059C77.6779 28.2059 77.5475 27.9347 77.3593 27.6034C76.9988 26.9687 76.4613 26.2447 76.453 26.383ZM41.3753 27.7706C41.0286 28.4457 41.0162 28.48 41.1815 28.3054C41.3784 28.0975 41.7349 27.3932 41.6739 27.3325C41.6471 27.3058 41.5127 27.503 41.3753 27.7706ZM14.1723 27.4199C14.1723 27.5339 15.1282 29.3479 15.1675 29.3087C15.1983 29.2781 14.3143 27.5062 14.2108 27.3909C14.1897 27.3673 14.1723 27.3804 14.1723 27.4199ZM98.7692 30.0588C98.7982 30.7665 98.8386 31.3649 98.8591 31.3885C98.9279 31.4676 98.8793 29.8075 98.7976 29.2868C98.7478 28.9697 98.7369 29.2662 98.7692 30.0588ZM78.1544 29.4412C78.3832 30.2079 78.7191 31.1183 78.7213 30.9776C78.7244 30.7887 78.2387 29.3336 78.1427 29.2443C78.1069 29.211 78.1122 29.2996 78.1544 29.4412ZM15.2068 29.4785C15.2068 29.5953 16.1396 31.3364 16.2623 31.4485C16.3241 31.5051 16.1308 31.0882 15.8325 30.522C15.2812 29.4752 15.2068 29.3512 15.2068 29.4785ZM39.4111 31.6131C38.8358 32.751 38.3799 33.6966 38.398 33.7143C38.4161 33.7319 38.8946 32.8357 39.4613 31.7224C40.6813 29.3261 40.5763 29.5441 40.5104 29.5441C40.4811 29.5441 39.9864 30.4751 39.4111 31.6131ZM98.9409 33.8676C98.9409 35.1982 98.9557 35.7424 98.9737 35.0772C98.9917 34.412 98.9917 33.3233 98.9737 32.6581C98.9557 31.9929 98.9409 32.5371 98.9409 33.8676ZM78.9696 33.7132C78.9698 34.336 78.9869 34.5775 79.0075 34.2499C79.0281 33.9223 79.0279 33.4127 79.0071 33.1175C78.9863 32.8224 78.9694 33.0904 78.9696 33.7132ZM38.3838 33.9014C38.3773 34.0213 39.9568 37.2733 40.0003 37.2299C40.02 37.2103 39.6654 36.4343 39.2123 35.5052C38.7591 34.5763 38.3863 33.8546 38.3838 33.9014ZM17.3792 35.4928C16.7433 36.8172 16.7442 36.9114 17.3813 35.6858C17.6707 35.1288 17.8934 34.6393 17.8762 34.5981C17.8589 34.5569 17.6352 34.9595 17.3792 35.4928ZM78.6328 36.6592C78.5656 37.0641 78.5306 37.4153 78.5551 37.4397C78.5796 37.4641 78.6556 37.1537 78.724 36.75C78.7925 36.3463 78.8274 35.995 78.8017 35.9694C78.776 35.9439 78.6999 36.2542 78.6328 36.6592ZM98.8269 37.1103C98.8275 37.5066 98.8461 37.6561 98.8685 37.4426C98.8909 37.229 98.8906 36.9047 98.8677 36.722C98.8448 36.5392 98.8265 36.714 98.8269 37.1103ZM16.293 37.6765C16.0358 38.186 15.8487 38.6029 15.8771 38.6029C15.9056 38.6029 16.1393 38.186 16.3964 37.6765C16.6536 37.1669 16.8408 36.75 16.8123 36.75C16.7839 36.75 16.5502 37.1669 16.293 37.6765ZM40.0408 37.4191C40.0424 37.4757 40.1594 37.7305 40.3009 37.9853C40.4461 38.247 40.5292 38.3365 40.4918 38.1912C40.4194 37.9094 40.036 37.2532 40.0408 37.4191ZM98.7235 38.7573C98.724 39.1537 98.7426 39.3031 98.7651 39.0896C98.7874 38.876 98.7871 38.5518 98.7642 38.369C98.7414 38.1862 98.7231 38.361 98.7235 38.7573ZM40.6603 38.7659C40.6677 38.8989 41.6779 40.8353 41.6843 40.7288C41.6891 40.6483 40.7878 38.8117 40.6957 38.7144C40.6734 38.6908 40.6574 38.714 40.6603 38.7659ZM77.9018 39.4489C77.8325 39.6347 77.7099 39.9389 77.6292 40.1248C77.5487 40.3107 77.4845 40.5192 77.4867 40.588C77.4912 40.7286 77.7347 40.2031 77.9513 39.5849C78.124 39.092 78.08 38.9708 77.9018 39.4489ZM77.172 41.2286C77.1178 41.3706 77.0014 41.6254 76.9133 41.7948C76.8252 41.9643 76.7765 42.1029 76.805 42.1029C76.8643 42.1029 77.1302 41.6089 77.2755 41.2286C77.3298 41.0867 77.3508 40.9706 77.3223 40.9706C77.2939 40.9706 77.2263 41.0867 77.172 41.2286ZM98.3378 41.8559C98.299 42.2325 98.2884 42.5616 98.3141 42.5873C98.3399 42.6129 98.394 42.327 98.4343 41.9519C98.4747 41.5769 98.4853 41.2478 98.458 41.2206C98.4307 41.1933 98.3766 41.4792 98.3378 41.8559ZM14.2052 41.661C14.1397 41.8191 13.9679 42.1918 13.8236 42.489C13.6793 42.7862 13.5817 43.0294 13.6068 43.0294C13.6893 43.0294 14.3914 41.5732 14.3576 41.4721C14.3394 41.4179 14.2708 41.5028 14.2052 41.661ZM76.5392 42.4375C76.4714 42.5649 76.3417 42.7832 76.251 42.9224C76.1495 43.0785 76.1364 43.145 76.2169 43.0956C76.3522 43.0127 76.8016 42.2059 76.7126 42.2059C76.685 42.2059 76.607 42.31 76.5392 42.4375ZM42.6306 42.875C42.6306 42.9316 42.789 43.279 42.9827 43.647C43.1763 44.0151 43.3347 44.2698 43.3347 44.2132C43.3347 44.1566 43.1763 43.8092 42.9827 43.4412C42.789 43.0732 42.6306 42.8184 42.6306 42.875ZM12.6793 44.6766C12.2464 45.5218 12.1862 45.7842 12.5966 45.0368C12.9398 44.4117 13.1483 43.9559 13.091 43.9559C13.0676 43.9559 12.8823 44.2802 12.6793 44.6766ZM74.793 44.8079C74.793 44.947 73.4476 46.3235 73.3115 46.3235C73.2153 46.3235 72.724 46.8016 72.724 46.8952C72.724 46.9967 73.964 45.9181 74.4309 45.4104C74.923 44.8754 75.0506 44.6765 74.9016 44.6765C74.8418 44.6765 74.793 44.7357 74.793 44.8079ZM11.6258 46.761C11.3054 47.398 10.9908 47.9532 10.9267 47.9948C10.8627 48.0364 10.8468 48.071 10.8914 48.072C10.9361 48.0728 10.9229 48.1662 10.862 48.2794C10.801 48.3926 10.7758 48.4853 10.8059 48.4853C10.836 48.4853 11.1871 47.8368 11.5861 47.0441C11.9851 46.2515 12.2884 45.6029 12.2601 45.6029C12.2317 45.6029 11.9463 46.1241 11.6258 46.761ZM44.1978 46.2206C44.4027 46.7109 44.9887 47.8327 44.9949 47.7466C45.0011 47.6601 44.2025 46.0095 44.1126 45.9233C44.0766 45.8886 44.1149 46.0224 44.1978 46.2206ZM96.8438 48.3986C96.721 48.8049 96.6386 49.1552 96.6606 49.177C96.6826 49.1989 96.8017 48.8852 96.9255 48.4798C97.0492 48.0745 97.1316 47.7242 97.1088 47.7014C97.0858 47.6785 96.9665 47.9923 96.8438 48.3986ZM45.1661 48.1765C45.2995 48.6603 45.9728 49.9557 46.0192 49.8174C46.0446 49.7415 46.0119 49.6617 45.9464 49.64C45.881 49.6183 45.8275 49.5642 45.8275 49.5199C45.8275 49.4757 45.6627 49.0974 45.4614 48.6793C45.26 48.2612 45.1271 48.0349 45.1661 48.1765ZM69.9827 48.388C69.7551 48.4952 69.4641 48.584 69.3361 48.5855C69.2081 48.587 69.1033 48.6323 69.1033 48.6862C69.1033 48.8025 69.8448 48.5945 70.293 48.3523C70.7189 48.1223 70.4914 48.1485 69.9827 48.388ZM66.2068 49.3088C65.8522 49.3831 65.8511 49.3848 66.1551 49.3923C66.3258 49.3964 66.6516 49.3615 66.8792 49.3147C67.293 49.2295 67.293 49.2296 66.9309 49.2313C66.7318 49.2322 66.4059 49.2671 66.2068 49.3088ZM64.4999 49.5147C64.1516 49.5768 64.1352 49.5895 64.3965 49.5954C64.5671 49.5992 64.9163 49.5652 65.1723 49.5199C65.59 49.446 65.6006 49.4377 65.2758 49.4392C65.0766 49.4402 64.7275 49.4741 64.4999 49.5147ZM55.6846 49.72C57.7206 49.7554 60.2577 49.7577 61.3225 49.7253C62.4456 49.691 60.8913 49.664 57.6206 49.661C52.353 49.656 52.2258 49.6598 55.6846 49.72ZM48.5277 49.875C48.5277 49.9316 48.7557 50.418 49.0344 50.9559C49.3131 51.4937 49.5411 51.8875 49.5411 51.8309C49.5411 51.7743 49.3131 51.2879 49.0344 50.75C48.7557 50.2121 48.5277 49.8184 48.5277 49.875ZM46.0449 50.0809C46.0449 50.1375 46.2729 50.6239 46.5516 51.1618C46.8303 51.6996 47.0583 52.0934 47.0583 52.0368C47.0583 51.9801 46.8303 51.4937 46.5516 50.9559C46.2729 50.418 46.0449 50.0243 46.0449 50.0809ZM95.4557 51.9851C95.3083 52.3249 95.2102 52.6029 95.2375 52.6029C95.3066 52.6029 95.8108 51.454 95.7627 51.4061C95.7412 51.3847 95.6031 51.6453 95.4557 51.9851ZM50.1788 53.2358C50.1694 53.3319 51.3042 55.6912 51.3598 55.6912C51.3853 55.6912 51.3193 55.4942 51.213 55.2537C50.9222 54.5958 50.1862 53.1596 50.1788 53.2358ZM47.8023 53.7868C47.8023 53.8434 47.9146 54.0981 48.0516 54.3529C48.1887 54.6077 48.3009 54.7698 48.3009 54.7132C48.3009 54.6566 48.1887 54.4018 48.0516 54.147C47.9146 53.8923 47.8023 53.7301 47.8023 53.7868ZM94.2453 54.2653C94.0694 54.5683 93.7131 55.1404 93.4536 55.5368C93.1932 55.9345 93.0967 56.1379 93.2382 55.9908C93.3792 55.8442 93.5767 55.5663 93.6771 55.3732C93.8569 55.0271 93.9745 54.8404 94.4381 54.1646C94.5675 53.9763 94.649 53.7979 94.6193 53.7682C94.5895 53.7387 94.4213 53.9624 94.2453 54.2653ZM28.0618 54.8676C28.4132 55.766 29.5708 58.1907 29.5815 58.0509C29.5884 57.9626 28.1502 54.8444 28.0702 54.7739C28.0323 54.7405 28.0286 54.7827 28.0618 54.8676ZM7.18438 55.3925C7.03727 55.6813 6.93434 55.9348 6.95555 55.9558C6.97676 55.9769 7.119 55.7408 7.27179 55.4309C7.42448 55.1211 7.52741 54.8676 7.50051 54.8676C7.47362 54.8676 7.33138 55.1039 7.18438 55.3925ZM25.9861 56.4323C25.8622 56.7242 25.7772 56.9794 25.7973 56.9993C25.8174 57.0193 25.9364 56.7981 26.0619 56.5078C26.1875 56.2175 26.2724 55.9624 26.2508 55.9408C26.2291 55.9193 26.11 56.1405 25.9861 56.4323ZM6.05162 57.647C5.62417 58.4963 5.29769 59.1912 5.32614 59.1912C5.35458 59.1912 5.72762 58.4963 6.15507 57.647C6.58251 56.7978 6.909 56.1029 6.88055 56.1029C6.8521 56.1029 6.47907 56.7978 6.05162 57.647ZM51.8382 56.6691C51.8382 56.7257 52.1592 57.3974 52.5516 58.1618C52.944 58.9261 53.265 59.5051 53.265 59.4485C53.265 59.3919 52.944 58.7202 52.5516 57.9559C52.1592 57.1915 51.8382 56.6125 51.8382 56.6691ZM91.9674 57.5698C91.6022 58.037 90.5795 59.1366 89.6947 60.0137C88.81 60.8906 88.2341 61.4928 88.4151 61.3519C89.2869 60.6725 92.2482 57.5073 92.6276 56.8493C92.8074 56.5373 92.5837 56.7814 91.9674 57.5698ZM49.5587 57.4555C49.5547 57.4917 49.7378 57.8966 49.9654 58.3552C50.193 58.8138 50.3792 59.2331 50.3792 59.287C50.3792 59.3408 50.4257 59.4134 50.4823 59.4483C50.6053 59.524 50.4853 59.1842 50.1762 58.5811C50.0603 58.355 49.9654 58.0986 49.9654 58.0115C49.9654 57.9243 49.926 57.8529 49.8778 57.8529C49.8296 57.8529 49.7396 57.7486 49.6778 57.6213C49.6162 57.494 49.5625 57.4193 49.5587 57.4555ZM24.793 59.2084C24.6415 59.5577 24.5341 59.8601 24.5544 59.8802C24.5747 59.9004 24.7157 59.6315 24.8677 59.2827C25.0198 58.9338 25.1271 58.6315 25.1063 58.6108C25.0855 58.5901 24.9445 58.859 24.793 59.2084ZM50.5961 59.6544C50.5961 59.711 50.7545 60.0584 50.9482 60.4265C51.1418 60.7945 51.3002 61.0493 51.3002 60.9926C51.3002 60.936 51.1418 60.5886 50.9482 60.2206C50.7545 59.8526 50.5961 59.5978 50.5961 59.6544ZM30.32 59.7573C30.32 59.814 30.4553 60.1151 30.6206 60.4265C30.7859 60.7379 30.9212 60.9463 30.9212 60.8897C30.9212 60.8331 30.7859 60.532 30.6206 60.2206C30.4553 59.9092 30.32 59.7007 30.32 59.7573ZM23.7603 61.6292C23.6095 62.0075 23.5028 62.3338 23.5233 62.3541C23.5438 62.3745 23.6848 62.0825 23.8365 61.7051C23.9884 61.3277 24.0951 61.0015 24.0736 60.9802C24.0521 60.9589 23.9111 61.2509 23.7603 61.6292ZM87.3805 62.0725C86.6095 62.6988 86.416 62.904 86.9566 62.5222C87.5341 62.1143 88.0685 61.6606 88.0216 61.6183C88.0001 61.5991 87.7117 61.8034 87.3805 62.0725ZM54.3153 61.7132C54.313 61.7698 54.4272 62.0441 54.5693 62.3225C54.7113 62.6011 54.8254 62.7632 54.8228 62.6828C54.8172 62.5101 54.3215 61.5628 54.3153 61.7132ZM31.3544 62.022C31.3544 62.0787 31.4898 62.3798 31.6551 62.6912C31.8204 63.0026 31.9557 63.211 31.9557 63.1544C31.9557 63.0978 31.8204 62.7967 31.6551 62.4853C31.4898 62.1739 31.3544 61.9654 31.3544 62.022ZM85.9654 63.1685C85.4022 63.6087 85.3325 63.6794 85.6033 63.5358C85.8287 63.4163 86.5667 62.8018 86.4827 62.8036C86.4542 62.8042 86.2215 62.9684 85.9654 63.1685ZM52.3494 63.386C52.3557 63.49 52.8513 64.407 52.8573 64.3256C52.8645 64.2261 52.4444 63.3088 52.3916 63.3088C52.3658 63.3088 52.3468 63.3435 52.3494 63.386ZM32.5954 64.6985C32.5954 64.7551 32.7077 65.0099 32.8447 65.2647C32.9818 65.5195 33.094 65.6816 33.094 65.625C33.094 65.5684 32.9818 65.3136 32.8447 65.0588C32.7077 64.804 32.5954 64.6419 32.5954 64.6985ZM55.7682 64.6985C55.7682 64.7551 55.9036 65.0562 56.0689 65.3676C56.2342 65.679 56.3695 65.8875 56.3695 65.8309C56.3695 65.7742 56.2342 65.4731 56.0689 65.1618C55.9036 64.8504 55.7682 64.6419 55.7682 64.6985ZM53.286 65.3162C53.286 65.3728 53.4676 65.7665 53.6896 66.1912C53.9116 66.6158 54.0931 66.9169 54.0931 66.8603C54.0931 66.8037 53.9116 66.4099 53.6896 65.9853C53.4676 65.5607 53.286 65.2595 53.286 65.3162ZM1.4372 66.6181C0.456308 68.5445 0.0102386 69.4849 0.0806869 69.4776C0.166549 69.4686 1.9651 65.8493 1.911 65.7945C1.89124 65.7745 1.67803 66.145 1.4372 66.6181ZM56.763 66.7537C56.9732 67.1763 57.162 67.5054 57.1826 67.4848C57.2287 67.439 56.4996 65.9853 56.4305 65.9853C56.4032 65.9853 56.5529 66.3311 56.763 66.7537ZM75.6206 68.147C75.2508 68.2494 75.0413 68.3369 75.1551 68.3416C75.2689 68.3462 75.6413 68.2623 75.9827 68.1551C76.7719 67.907 76.5095 67.9012 75.6206 68.147ZM73.293 68.6618C72.9827 68.7403 72.9827 68.7403 73.293 68.7452C73.4637 68.748 73.6964 68.7104 73.8102 68.6618C74.0171 68.5733 74.0171 68.5733 73.8102 68.5783C73.6964 68.5809 73.4637 68.6185 73.293 68.6618ZM20.4662 69.2839C20.2394 69.7765 20.1394 69.8892 19.8972 69.9254C19.6033 69.9691 19.6033 69.9691 19.9205 69.9845C20.211 69.9986 20.2626 69.9481 20.5338 69.3836C20.6967 69.0445 20.81 68.7489 20.7855 68.7266C20.7612 68.7044 20.6174 68.9551 20.4662 69.2839ZM54.9363 68.8162C54.9373 68.8728 55.0048 69.0349 55.0861 69.1765C55.1674 69.318 55.2356 69.4678 55.2377 69.5093C55.2396 69.5507 54.0426 69.5979 52.5775 69.6141C49.9137 69.6433 49.9137 69.6433 52.6231 69.6673C54.1133 69.6804 55.3511 69.6565 55.374 69.614C55.3968 69.5714 55.3072 69.3515 55.1749 69.125C55.0426 68.8985 54.9352 68.7595 54.9363 68.8162ZM70.7585 69.0735C70.1896 69.1429 70.1896 69.1429 70.7783 69.1597C71.1021 69.1689 71.3958 69.1301 71.4309 69.0735C71.4661 69.0169 71.4572 68.9781 71.4112 68.9874C71.3651 68.9966 71.0715 69.0353 70.7585 69.0735ZM65.793 69.4853C65.0171 69.5512 65.0171 69.5512 65.6896 69.5576C66.0594 69.5613 66.6646 69.5303 67.0344 69.489C67.7068 69.4137 67.7068 69.4137 67.1378 69.4166C66.8249 69.4182 66.2197 69.449 65.793 69.4853ZM1.065 69.5619C1.50848 69.5812 2.20676 69.5811 2.61672 69.5617C3.02658 69.5421 2.66369 69.5264 1.81024 69.5265C0.95679 69.5266 0.621411 69.5425 1.065 69.5619ZM6.69817 69.6644C7.05382 69.6846 7.63572 69.6846 7.99127 69.6644C8.34693 69.6443 8.05593 69.6279 7.34472 69.6279C6.63351 69.6279 6.34262 69.6443 6.69817 69.6644ZM60.7446 69.6648C61.2396 69.6836 62.0776 69.6837 62.6067 69.665C63.1359 69.6463 62.7309 69.6308 61.7068 69.6307C60.6827 69.6306 60.2497 69.646 60.7446 69.6648ZM10.3653 69.7678C10.8603 69.7866 11.6982 69.7867 12.2274 69.768C12.7566 69.7492 12.3516 69.7338 11.3275 69.7337C10.3033 69.7336 9.87041 69.7489 10.3653 69.7678ZM38.6709 69.7683C40.1684 69.7844 42.5891 69.7844 44.0502 69.7683C45.5113 69.7522 44.2861 69.739 41.3275 69.739C38.3689 69.739 37.1734 69.7522 38.6709 69.7683ZM17.3792 69.8911C18.4318 69.9246 19.3596 69.9216 19.441 69.8843C19.5224 69.847 18.6612 69.8195 17.5272 69.8232C15.4654 69.83 15.4654 69.83 17.3792 69.8911Z" fill="#767A7B"/>
<path fill-rule="evenodd" clip-rule="evenodd" d="M7.97307 0.223477C3.9092 0.271448 0.558721 0.335992 0.527687 0.366977C0.479066 0.415257 3.58096 6.65195 3.72414 6.79411C3.75269 6.82242 4.60965 8.49007 5.62841 10.5C7.88627 14.9546 10.1932 19.4791 11.5067 22.0294C12.0461 23.0768 13.7121 26.3417 15.2088 29.2846C17.93 34.6354 17.93 34.6354 16.6523 37.1596C15.9497 38.548 15.3485 39.707 15.3166 39.7353C15.2847 39.7636 14.7232 40.849 14.0689 42.1473C13.4145 43.4456 12.3291 45.5765 11.6567 46.8826C10.9842 48.1887 9.38348 51.3187 8.09927 53.8382C6.81517 56.3577 5.58062 58.7624 5.35572 59.1819C4.47165 60.8318 0.20679 69.2575 0.20679 69.3541C0.20679 69.4735 1.96758 69.5199 18.2894 69.8313C20.1824 69.8674 20.1824 69.8674 20.33 69.5836C20.4111 69.4274 20.969 68.1486 21.5698 66.7418C22.1705 65.3349 22.845 63.7669 23.0684 63.2573C23.292 62.7478 24.2451 60.5243 25.1863 58.3162C27.2224 53.5402 27.286 53.4012 27.4174 53.4449C27.5118 53.4762 27.8055 54.0811 28.8583 56.4118C29.0758 56.893 29.4037 57.611 29.5871 58.0073C30.4198 59.8064 31.1509 61.3911 31.629 62.4338C31.9146 63.0566 32.3821 64.0757 32.6679 64.6985C32.9538 65.3213 33.4934 66.5026 33.8673 67.3235C34.2412 68.1445 34.6528 69.0216 34.7821 69.2728C35.0171 69.7294 35.0171 69.7294 40.5516 69.7101C46.5609 69.6892 55.2413 69.5785 55.2413 69.5229C55.2413 69.4562 53.3593 65.4678 50.5362 59.5515C50.2121 58.872 49.8277 58.0614 49.6821 57.75C49.5364 57.4386 48.9524 56.211 48.3843 55.022C47.8161 53.8331 47.2002 52.536 47.0157 52.1397C46.831 51.7434 46.4241 50.8864 46.1112 50.2353C45.5853 49.1407 44.5444 46.9514 43.4194 44.5735C42.4743 42.5757 42.0582 41.6987 41.222 39.9412C40.7506 38.9504 40.1797 37.7459 39.9534 37.2647C39.7271 36.7834 39.2803 35.8458 38.9606 35.1811C38.6408 34.5163 38.3792 33.8966 38.3792 33.8038C38.3792 33.6658 41.6105 27.2423 42.6193 25.375C42.7723 25.0919 43.769 23.1463 44.8342 21.0515C45.8995 18.9566 47.4238 15.9687 48.2217 14.4118C49.0195 12.8548 50.4657 10.029 51.4353 8.13235C52.4049 6.23565 53.7094 3.69671 54.3342 2.49014C54.9591 1.28367 55.4534 0.279786 55.4329 0.259301C55.4124 0.238815 50.8202 0.206904 45.2282 0.188271C35.0608 0.154404 35.0608 0.154404 34.1317 2.47058C33.6207 3.74448 33.1104 5.00684 32.9978 5.27573C32.5853 6.26067 32.3593 6.8217 30.7172 10.9375C29.6012 13.7345 28.9942 15.1323 28.8954 15.1323C28.8034 15.1323 28.0479 13.717 26.9036 11.4007C20.6667 -1.22346 21.6719 0.100977 18.3416 0.119609C16.7028 0.128771 12.0369 0.175507 7.97307 0.223477ZM57.6526 0.388904C57.4847 0.49658 57.144 1.24002 54.6712 6.89705C53.4956 9.58639 52.3337 12.2268 52.089 12.7647C51.8444 13.3026 51.4683 14.1596 51.2533 14.6691C51.0383 15.1787 50.6796 15.9893 50.4563 16.4706C50.233 16.9518 49.9137 17.6855 49.7466 18.101C49.5797 18.5165 49.357 19.0261 49.252 19.2333C49.1469 19.4406 49.0304 19.7085 48.9932 19.8285C48.9256 20.0468 48.9255 20.0468 55.0058 20.1046C62.5377 20.1763 66.8792 20.4413 68.8447 20.9497C69.6394 21.1551 70.8949 21.6241 71.077 21.7836C71.1668 21.8621 71.3063 21.9265 71.387 21.9265C71.6714 21.9265 73.8768 23.4955 74.7462 24.3166C76.6763 26.1389 78.091 28.5132 78.7506 31.0368C78.926 31.7072 78.9671 32.1855 78.9726 33.6103C78.9808 35.7521 78.7407 37.2295 78.0524 39.2721C77.3348 41.4016 76.4541 42.9943 75.0923 44.625C74.194 45.7007 74.1266 45.7706 73.3964 46.3848C69.8215 49.392 66.7174 49.9241 54.0689 49.6981C51.0628 49.6444 48.583 49.6207 48.5582 49.6453C48.5121 49.6913 49.0704 50.8657 51.2368 55.2794C51.9176 56.6665 53.208 59.307 54.1043 61.147C55.0005 62.9871 56.2516 65.545 56.8841 66.8313C57.5167 68.1175 58.0344 69.1979 58.0344 69.2319C58.0344 69.2661 58.1009 69.3603 58.1822 69.4411C58.5173 69.7747 66.2352 69.5729 70.2413 69.126C73.5773 68.7539 77.3681 67.8253 79.8519 66.7717C82.9166 65.4715 87.189 62.5144 89.9031 59.8148C91.7197 58.0078 92.6052 56.8698 94.409 54.0245C94.7281 53.5212 95.8059 51.2708 96.1007 50.4926C96.2292 50.1529 96.3686 49.8055 96.4103 49.7206C96.5727 49.3893 97.533 46.1169 97.7395 45.1912C98.5888 41.383 98.9784 36.9898 98.8618 32.5322C98.7928 29.8903 98.6836 28.5369 98.4214 27.0735C97.6436 22.7321 96.6355 19.8846 94.5978 16.2734C93.202 13.8 90.4303 10.626 87.9303 8.6382C86.8546 7.78286 84.849 6.41179 83.793 5.80968C82.315 4.96701 79.9669 3.89312 78.2068 3.25509C77.0878 2.8494 74.2 1.97626 73.4482 1.81618C72.8682 1.69276 69.4257 1.02137 68.8964 0.928418C67.2429 0.638227 63.9076 0.398168 60.9309 0.355345C59.1956 0.33033 57.7203 0.345359 57.6526 0.388904Z" fill="#FBFBFB"/>
</g>
</svg>
